<svg width="158" height="158" viewBox="0 0 158 158" fill="none" xmlns="http://www.w3.org/2000/svg">
<g clip-path="url(#clip0_132_87)">
<path d="M107.193 22.2188H50.8316C48.1047 22.2188 45.8941 24.4293 45.8941 27.1562V130.844C45.8941 133.571 48.1047 135.781 50.8316 135.781H107.193C109.92 135.781 112.131 133.571 112.131 130.844V27.1562C112.131 24.4293 109.92 22.2188 107.193 22.2188Z" stroke="white" stroke-width="4" stroke-linecap="round" stroke-linejoin="round"/>
<path d="M75.2969 127.141H82.7031M66.6563 30.8594H74.0625M83.9375 30.8594H91.3438M50.8316 22.2188H107.168C108.478 22.2188 109.734 22.739 110.66 23.6649C111.586 24.5909 112.106 25.8467 112.106 27.1562V39.5H45.8941V27.1562C45.8941 25.8467 46.4143 24.5909 47.3402 23.6649C48.2662 22.739 49.5221 22.2187 50.8316 22.2188ZM107.168 135.781H50.8316C49.5221 135.781 48.2662 135.261 47.3402 134.335C46.4143 133.409 45.8941 132.153 45.8941 130.844V118.5H112.106V130.844C112.106 132.153 111.586 133.409 110.66 134.335C109.734 135.261 108.478 135.781 107.168 135.781Z" stroke="white" stroke-width="4" stroke-linecap="round" stroke-linejoin="round"/>
<path d="M79 76.5312L68.261 65.7921C59.5957 57.1268 70.3347 46.3878 79 55.0531C87.6653 46.3878 98.4044 57.1268 89.7391 65.7921L79 76.5312Z" stroke="white" stroke-width="4" stroke-linejoin="round"/>
<path d="M62.9531 88.875H95.0469M67.2734 101.219H90.7266" stroke="white" stroke-width="4" stroke-linecap="round" stroke-linejoin="round"/>
</g>
<defs>
<clipPath id="clip0_132_87">
<rect width="158" height="158" fill="white"/>
</clipPath>
</defs>
</svg>
