<svg xmlns="http://www.w3.org/2000/svg" enable-background="new 0 0 1920 1080" viewBox="0 0 1920 1080" id="male-and-female-employee-chatting-on-phone">
  <path fill="none" stroke="#fbb040" stroke-miterlimit="10" d="M598.04,509.34c-17.4-6.75-146.66-168.77,65.36-204.47s209.42-159.03,347.83-169.12  s477.13,210.38,299.01,371.73"></path>
  <path fill="#97cdd3" d="M610.25,764.68c-2.5,10.37-11.16,22.08-20.71,35.68l-0.04,0.06c-0.02,0.02-0.06,0.08-0.12,0.14  c-2.5,3.57-5.07,7.26-7.59,11.12c-9.2,13.96-16.45,32.07-30.19,45.85c-12.43,12.47-29.5,19.64-45.26,29.79  c-2.58,0.83-3.03,2.87-5.02,1.01l-4.72-4.42l-3.19-2.99c-1.47-1.33,0.69-3.05,0.73-5.77v-0.2c0.16-15.92-0.75-16.12,5.27-28.29  c1.05-2.18,2.36-4.74,3.91-7.85c2.28-4.52,5.85-8.7,9.87-13.06c4.7-5.13,9.97-10.45,14.31-16.77c6.72-9.75,10.19-23.35,19.33-33.16  c8.25-8.88,21.35-13.4,31.8-21.47c9.34-7.22,16.69-10.96,22.04-11.79C610.76,741,613.85,749.7,610.25,764.68z"></path>
  <path fill="#97cdd3" d="M498.39,882.81l-1.8,1.09l-7.51,4.48c-2.34,1.41-2.34-0.69-4.7-2.06c-13.28-13.24-28.45-23.81-37.98-38.63  c-8.86-13.76-12.59-29.56-17.15-43.51v-0.02c-0.87-2.62-1.76-5.19-2.7-7.65c-8.03-20.73-17.6-38.42-17.92-51.94  c-0.56-23.61,11.12-29.46,33.1-3.43c8.52,10.07,20.36,17.25,26.56,27.67c6.88,11.52,7.41,25.55,11.91,36.51  c5.39,13.06,14.59,23.57,17.36,34.23c0.71,2.72,1.33,5.07,1.86,7.1c3.65,14.31,2.85,14.05-0.3,29.3c-0.08,0.34-0.14,0.71-0.22,1.07  C498.33,879.68,500.11,881.82,498.39,882.81z"></path>
  <path fill="#87c9cc" d="M589.39,800.56c-2.5,3.57-5.07,7.26-7.59,11.12c-9.2,13.96-16.45,32.07-30.19,45.85  c-12.43,12.47-29.5,19.64-45.26,29.79c-2.58,0.83-3.03,2.87-5.02,1.01l-4.72-4.42l-7.51,4.48c-2.34,1.41-2.34-0.69-4.7-2.06  c-13.28-13.24-28.45-23.81-37.98-38.63c-8.86-13.76-12.59-29.56-17.15-43.51c16.25,42.12,54.29,65.02,64.88,70.75  c1.78,0.95,2.78,1.43,2.78,1.43c0.73-0.12,1.45-0.24,2.18-0.42C534.72,868.16,586.14,804.59,589.39,800.56z"></path>
  <path fill="#c6ecf7" d="M533.93,793.57c-2.24,17.09,1.15,33.8-2.36,46.76c-7.35,27.06-6.01,23.09-21.31,40.5  c-2.18,2.48-1.61,5.83-4.04,5.83l-9.02,0.18l-4.22,0.08c-3.31,0.08-2.06-2.14-3.71-5.02c-6.03-22.06-15.7-42.46-16.81-63.91  c-1.25-23.73,6.94-46.07,9.99-66.25c4.04-26.8,4.62-51.34,12.47-65.85c13.7-25.35,29.62-24.46,37.13,16.41  c2.78,15.14,10.39,29.3,11.28,43.45c0.04,0.67,0.06,1.31,0.08,1.96C543.72,764.07,535.79,779.23,533.93,793.57z"></path>
  <path fill="#a0d9ea" d="M512.33,695.28c-0.04,13.48-0.41,26.93-0.98,40.39c-0.58,13.45-1.4,26.89-2.45,40.31   c-1.04,13.42-2.45,26.81-4.08,40.17c-1.68,13.35-3.8,26.65-6.3,39.87c2.34-13.25,4.29-26.56,5.81-39.92   c1.47-13.37,2.71-26.76,3.58-40.18c0.89-13.42,1.54-26.85,1.95-40.29c0.4-13.43,0.61-26.89,0.48-40.31l0-0.01   c-0.01-0.55,0.44-1,0.99-1.01c0.55-0.01,1,0.44,1.01,0.99C512.33,695.27,512.33,695.28,512.33,695.28z"></path>
  <path fill="#c6ecf7" d="M592.31,759.43c-7.4,11.33-15.21,22.34-23.28,33.18c-8.09,10.81-16.44,21.43-25.19,31.71   c-4.37,5.14-8.82,10.22-13.41,15.17c-4.58,4.96-9.26,9.83-14.1,14.53c-9.66,9.42-19.91,18.29-31.08,25.87   c11.08-7.71,21.2-16.69,30.73-26.22c4.78-4.75,9.39-9.67,13.9-14.68c4.52-5,8.9-10.12,13.2-15.31   c8.61-10.37,16.81-21.07,24.75-31.96c7.91-10.91,15.58-22.01,22.8-33.36l0.01-0.01c0.3-0.47,0.91-0.6,1.38-0.31   c0.47,0.3,0.6,0.91,0.31,1.38C592.31,759.42,592.31,759.43,592.31,759.43z"></path>
  <path fill="#c6ecf7" d="M424.49,743.3c6.63,11.61,13.63,23.06,20.79,34.37c7.2,11.3,14.57,22.49,22.3,33.44   c1.89,2.76,3.9,5.44,5.85,8.17l2.94,4.07l3.02,4.02c2.03,2.67,4.02,5.36,6.08,8l6.26,7.86c8.49,10.36,17.35,20.44,27.03,29.73   c-9.79-9.17-18.79-19.15-27.41-29.41l-6.36-7.79c-2.1-2.62-4.12-5.29-6.18-7.94l-3.07-3.98l-3-4.04c-1.98-2.71-4.03-5.37-5.96-8.11   c-7.87-10.87-15.39-21.98-22.74-33.2c-7.32-11.25-14.46-22.6-21.27-34.19c-0.28-0.48-0.12-1.09,0.36-1.37s1.09-0.12,1.37,0.36   c0,0,0,0,0,0.01L424.49,743.3z"></path>
  <path fill="#b9e3ed" d="M533.93,793.57c-2.24,17.09,1.15,33.8-2.36,46.76c-7.35,27.06-6.01,23.09-21.31,40.5  c-2.18,2.48-1.61,5.83-4.04,5.83l-9.02,0.18c11.68-3.33,26.25-57.88,27.06-80.38c0.83-22.68,19.07-60.72,19.07-60.72  c0.04,0.67,0.06,1.31,0.08,1.96C543.72,764.07,535.79,779.23,533.93,793.57z"></path>
  <path fill="#aac9a6" d="M1350.07 749.32c-.35 6.74-6.96 134.64-6.96 134.64l-3.67-4.94c0 0 10.63-113.73 4.61-132.88-.33-1.04-.72-2.06-1.19-3.07-8-17.57-34.74-30.91-34.5-49 0 0 30.24-1 38.98 9.05C1356.08 713.19 1350.42 742.59 1350.07 749.32zM1443.6 708.1c0 0-14.63 24.05-40.24 25.67-25.61 1.61-24.87 15.72-24.87 15.72l-13.61 132.55-4.07-3c0 0 7.56-100.03 16.89-143.4 2.07-9.65 4.24-16.48 6.43-18.8 9.83-10.37 32.65-18.42 49.39-13.81C1437.25 704.04 1440.67 705.69 1443.6 708.1z"></path>
  <path fill="#bfe5ba" d="M1387.34 763.76c-6.33 3.33-17.02 10.94-23.89 16-3.56 2.61-6.09 4.56-6.52 4.87-.02.02-.04.02-.06.04-.02.54-.06 1.09-.07 1.63-.56 12.57-.81 25.76-.63 39.48.24 21.41 1.46 41.52 3.28 60.18-.85-1.06-1.7-2.09-2.57-3.13 0 0-9.83-87.4-.78-111.03 9.04-23.61 30.78-29.76 39.76-29.76C1395.86 742.04 1397.27 758.57 1387.34 763.76zM1351.75 878.83l-4.24-.43c0 0-3.78-94.96-18.91-113.84-15.11-18.89-27.39-13.7-29.76-35.91 0 0 38.87 4.72 43.29 22.68 3.5 14.2 1.46 21.91.46 24.5-.09.22-.17.39-.24.54-.09.2-.15.35-.2.41-.02.04-.02.06-.02.06L1351.75 878.83z"></path>
  <path fill="#bfe5ba" d="M1437.17 785c-10.13-9.37-40.46-6.65-40.46-6.65-21.74 47.98-23.59 122.03-23.59 122.03l-2.81-.24c4.91-105.53 25.65-127.07 25.65-127.07 7.43-9.35 19.54-12.61 33.94-9.05 6.43 1.59 8.56 5.94 8.96 10.26C1439.36 779.65 1437.17 785 1437.17 785zM1350.68 925.8l-2.81.28c0 0-3.07-74.01-25.61-121.62 0 0-30.35-2.2-40.33 7.31 0 0-7.41-17.3 6.93-21.09 14.35-3.8 26.52-.74 34.07 8.48C1322.92 799.16 1344.01 820.37 1350.68 925.8z"></path>
  <linearGradient id="a" x1="490.924" x2="490.775" y1="956.015" y2="891.109" gradientUnits="userSpaceOnUse">
    <stop offset="0" stop-color="#fff"></stop>
    <stop offset=".089" stop-color="#f9f9f9" stop-opacity=".916"></stop>
    <stop offset=".208" stop-color="#e8e8e8" stop-opacity=".803"></stop>
    <stop offset=".344" stop-color="#ccc" stop-opacity=".675"></stop>
    <stop offset=".492" stop-color="#a5a5a5" stop-opacity=".535"></stop>
    <stop offset=".65" stop-color="#737373" stop-opacity=".385"></stop>
    <stop offset=".814" stop-color="#383838" stop-opacity=".229"></stop>
    <stop offset=".951" stop-opacity=".1"></stop>
  </linearGradient>
  <ellipse cx="490.89" cy="941.56" fill="url(#a)" rx="32.45" ry="6.14"></ellipse>
  <linearGradient id="b" x1="1163.063" x2="1170.745" y1="960.124" y2="844.191" gradientUnits="userSpaceOnUse">
    <stop offset="0" stop-color="#fff"></stop>
    <stop offset=".085" stop-color="#f6f6f6" stop-opacity=".924"></stop>
    <stop offset=".224" stop-color="#dedede" stop-opacity=".799"></stop>
    <stop offset=".399" stop-color="#b6b6b6" stop-opacity=".641"></stop>
    <stop offset=".604" stop-color="#7e7e7e" stop-opacity=".456"></stop>
    <stop offset=".832" stop-color="#383838" stop-opacity=".251"></stop>
    <stop offset="1" stop-opacity=".1"></stop>
  </linearGradient>
  <path fill="url(#b)" d="M1138.82,931.15c-36.26,0.94-54.22,6.76-54.22,6.76s-23.66,7.37-18.39,10.52c5.27,3.15,187.45-0.52,194.63,0  s-11.76-17.12-39.49-18.84L1138.82,931.15"></path>
  <linearGradient id="c" x1="720.665" x2="721.239" y1="971.72" y2="785.383" gradientUnits="userSpaceOnUse">
    <stop offset="0" stop-color="#fff"></stop>
    <stop offset=".094" stop-color="#f9f9f9" stop-opacity=".916"></stop>
    <stop offset=".218" stop-color="#e8e8e8" stop-opacity=".803"></stop>
    <stop offset=".361" stop-color="#ccc" stop-opacity=".675"></stop>
    <stop offset=".517" stop-color="#a5a5a5" stop-opacity=".535"></stop>
    <stop offset=".684" stop-color="#737373" stop-opacity=".385"></stop>
    <stop offset=".856" stop-color="#383838" stop-opacity=".229"></stop>
    <stop offset="1" stop-opacity=".1"></stop>
  </linearGradient>
  <path fill="url(#c)" d="M695.64,934.43c-36.26,0.94-54.22,6.76-54.22,6.76s-23.66,7.37-18.39,10.52c5.27,3.15,187.45-0.52,194.63,0  c7.19,0.52-11.76-17.12-39.49-18.84L695.64,934.43"></path>
  <path fill="#ffd8a4" d="M1077.76,942.19H787.29c-6.89,0-12.48-5.59-12.48-12.48V319.79c0-6.89,5.59-12.48,12.48-12.48h290.48  c6.89,0,12.48,5.59,12.48,12.48v609.93C1090.24,936.6,1084.65,942.19,1077.76,942.19z"></path>
  <path fill="#f7f7f7" d="M1068.05,924.9H797c-6.89,0-12.48-5.59-12.48-12.48V334.14c0-6.89,5.59-12.48,12.48-12.48h271.05  c6.89,0,12.48,5.59,12.48,12.48v578.29C1080.53,919.32,1074.94,924.9,1068.05,924.9z"></path>
  <path fill="none" stroke="#bcbec0" stroke-miterlimit="10" stroke-width=".75" d="M1003.34,908.74H815.41c-4.39,0-7.96-3.56-7.96-7.96v-18.01c0-4.39,3.56-7.96,7.96-7.96h187.93   c4.39,0,7.96,3.56,7.96,7.96v18.01C1011.3,905.18,1007.74,908.74,1003.34,908.74z"></path>
  <circle cx="1040.57" cy="891.72" r="17.02" fill="#fbb040"></circle>
  <path fill="none" stroke="#fff" stroke-linejoin="round" stroke-miterlimit="10" stroke-width=".75" d="M1033.48,883.61l16.56,6.91c0.44,0.18,0.47,0.79,0.05,1.01l-15.57,8.3l3.04-8.38L1033.48,883.61z"></path>
  <polyline fill="none" stroke="#fff" stroke-linejoin="round" stroke-miterlimit="10" stroke-width=".75" points="1037.53 891.42 1037.55 891.42 1050.38 891.13"></polyline>
  <path fill="#f98800" d="M1079.73,650.94c0,0,8.2,1.96,22.03,0l-2.83-8.85C1098.93,642.09,1082.21,645.05,1079.73,650.94z"></path>
  <path fill="#ffc7ab" d="M1188.21 895.48v21.03c0 0 37.39 6.01 43.06 10.35 5.67 4.34 6.68 11.35 6.68 11.35h-80.45l-11.02-53.74L1188.21 895.48zM1109.2 883.29l-9.35 12.72c0 0 17.98 19.94 20.31 26.19 4.17 11.18-1.79 17.37-1.79 17.37l-56.68-44.54 22.25-41.44L1109.2 883.29z"></path>
  <path fill="#025199" d="M1121.52,875.74c-5.05,4.11-8.02,6.45-8.02,6.45l-23.29-18.75l-8.45-6.81l5.46-11.78l0.76-1.64l36.01-77.65   l14.83-31.98l-2.17-84.14l-0.21-7.95l-0.75-28.75l78.11,7.67c0,0,1.57,6.67,4.06,17c0.73,3.08,1.55,6.47,2.43,10.12v0.01   c7.16,29.48,18.42,74.96,24.5,94.04C1252.77,766.71,1151.21,851.59,1121.52,875.74z"></path>
  <polygon fill="#69b8e0" points="1122.12 876.29 1112.12 884.46 1091.14 867.2 1078.82 857.06 1085.07 842.92 1087.21 844.86 1090.14 847.48 1121.52 875.74"></polygon>
  <path fill="#d7ecff" d="M1131.16,780.22l-6.29-15.09l-0.88,0.44l-36.01,77.66l0,0l-0.76,1.64l-2.14-1.94l-6.25,14.14l12.32,10.14   l-0.94-3.76C1089.81,845.78,1131.16,780.22,1131.16,780.22z" opacity=".39"></path>
  <path fill="#0459b5" d="M1213.8,620.42c-15.45,38.64-21.01,214.99-22.27,264.46c-0.22,8.21-0.31,12.94-0.31,12.94h-44.74l-3.15-12.94   l-8.95-36.83c-0.03-0.1-0.04-0.15-0.04-0.15l-17.85-73.37c-0.01-0.06-0.01-0.1-0.03-0.16l-31.9-131.16l-0.43-1.75L1213.8,620.42z"></path>
  <path fill="#d7ecff" d="M1116.46,774.36l-27.9-114.69l-3.78-15.59l-0.22-0.88l5.12,0.65l17.29,2.16c0,0-0.29,2.63-0.54,7.64   C1105.54,670.42,1104.97,713.88,1116.46,774.36z" opacity=".39"></path>
  <polygon fill="#69b8e0" points="1192.22 884.87 1192.22 898.43 1145.65 898.43 1142.13 884.87"></polygon>
  <path fill="#d7ecff" d="M1169,898.43h-23.35l-3.52-13.55h1.2l-8.95-36.83c0.67,1.92,7.89,22.57,17.54,36.83   c4.21,6.25,8.89,11.27,13.69,12.94C1166.73,898.22,1167.87,898.43,1169,898.43z" opacity=".39"></path>
  <line x1="1111.26" x2="1166.36" y1="631.85" y2="872.16" fill="none" stroke="#2b3990" stroke-linecap="round" stroke-miterlimit="10" stroke-width="2"></line>
  <path d="M1220.29,647.54v0.01c0,0-27.86,9.59-63.73,3.39c-6.84-1.19-13.55-1.6-19.92-1.5   c-11.56,0.19-22.03,2.08-30.22,4.2c-10.97,2.82-17.87,6.03-17.87,6.03l-3.78-15.59l4.9-0.23l46.76-2.35l81.42-4.08   C1218.59,640.5,1219.41,643.89,1220.29,647.54z" opacity=".38"></path>
  <path fill="#ffc7ab" d="M1294.28,503.64c0,0-1.76,15.72-5.5,34.37c-0.07,0.37-0.13,0.7-0.21,1.04c-0.03,0.12-0.04,0.21-0.06,0.29    c-5.09,24.99-13.69,54.6-26.29,58.56c-0.81,0.25-1.6,0.48-2.39,0.69c-0.01,0-0.01,0-0.03,0c-21.28,5.62-39.97-3.45-48.9-10.21    c-3.56-2.7-8.02-8.01-12.16-13.51c-6.6-8.77-12.37-18.03-12.37-18.03v-30.06l28.88-0.95l23-0.76c0,0,2.17,3.37,4.81,7.58    c0.01,0,0.01,0,0.01,0c3.55,5.65,7.96,12.82,9.21,15.5c0,0,32.05-51.91,35.72-63.26c0,0,2.82-5.25,8.29-6.75    c1.83-0.51,3.98-0.6,6.4,0.07C1302.7,478.22,1306.3,494.62,1294.28,503.64z"></path>
  <path fill="#fcb89a" d="M1259.81 598.59c-21.28 5.62-39.97-3.45-48.9-10.21-3.56-2.7-8.02-8.01-12.16-13.51l-5.35-36.55 21.87-12.48 23-.76c0 0 2.17 3.37 4.81 7.58-.35-.23-6.34-3.97-15.9.97C1212.56 541.17 1219.52 603.84 1259.81 598.59zM1294.28 503.64c0 0-1.76 15.72-5.5 34.37.95-5.28 1.17-12.45 1.63-22.19.5-10.37-8.98-11.78-8.98-11.78s2.24-.23 7.38-2.38c4.08-1.69 6.63-17.22 7.5-23.51 1.83-.51 3.98-.6 6.4.07C1302.7 478.22 1306.3 494.62 1294.28 503.64z"></path>
  <path fill="#414042" d="M1292.95,471.44l12.29-3.78c1.82-0.14,2.34,1.45,1.95,2.21l-16.62,32.01c-0.16,0.31-0.47,0.51-0.82,0.54    l-13.28,0.91c-0.79,0.05-2.37-0.62-1.94-2.1l17.77-29.31C1292.44,471.68,1292.68,471.5,1292.95,471.44z"></path>
  <path fill="#fff" d="M1292.01,470.68l13.13-3c0.83-0.19,1.5,0.68,1.11,1.44l-16.62,32.01c-0.16,0.31-0.47,0.51-0.82,0.54    l-13.28,0.91c-0.79,0.05-1.33-0.79-0.94-1.49l16.78-29.91C1291.5,470.92,1291.74,470.75,1292.01,470.68z"></path>
  <path fill="#6d6e71" d="M1292.01,470.68l13.13-3c0.83-0.19,1.5,0.68,1.11,1.44l-16.62,32.01c-0.16,0.31-0.47,0.51-0.82,0.54    l-13.28,0.91c-0.79,0.05-1.33-0.79-0.94-1.49l16.78-29.91C1291.5,470.92,1291.74,470.75,1292.01,470.68z"></path>
  <path fill="#fff" d="M1275.11,500.89l16.45-29.3c0.07-0.13,0.2-0.23,0.35-0.26l12.74-2.81c0.44-0.1,0.8,0.36,0.59,0.76    l-15.77,30.98c-0.08,0.16-0.25,0.27-0.43,0.29l-13.41,1.13C1275.19,501.72,1274.9,501.26,1275.11,500.89z"></path>
  <path fill="#ffc7ab" d="M1280.43,487.62c0,0,3.05-4.13,6.84-3.88c2.73,0.18-8.37,12.66-9.85,12.73    C1276.75,496.49,1276.54,492.41,1280.43,487.62z"></path>
  <path fill="#fbb040" d="M1239.45,524.55l-4.62,2.08l-4.91,2.21l-13.61,6.15l-4.4,1.98l-2.99,1.35l0.01,0.06   c0.13,0.53,1.29,5.05,2.98,11.95c0.21,0.84,0.41,1.7,0.65,2.61c0.31,1.31,0.63,2.68,0.98,4.12c0.87,3.62,1.8,7.63,2.77,11.88   c1.04,4.59,2.13,9.46,3.2,14.43c0.29,1.36,0.59,2.74,0.88,4.12c1.86,8.9,3.62,18,4.99,26.32c0.22,1.39,0.44,2.77,0.65,4.12   c0.76,5.06,1.33,9.75,1.66,13.82c0.21,2.7,0.31,5.12,0.26,7.2c0,0-4.46,1.17-11.63,2.65c-1.38,0.28-2.85,0.57-4.4,0.87   c-2.98,0.59-6.29,1.17-9.83,1.76c-4.86,0.79-10.15,1.54-15.65,2.13c-1.45,0.16-2.9,0.31-4.39,0.44c-4.64,0.43-9.39,0.73-14.11,0.85   c-3.83,0.1-7.64,0.09-11.37-0.1c-0.53-0.03-1.04-0.06-1.57-0.09c-0.94-0.06-1.88-0.12-2.83-0.16c-0.62-0.04-1.23-0.09-1.85-0.12   c-0.01,0-0.01,0-0.03,0c-7.91-0.45-15.93-0.84-23.6-1.07c-1.48-0.03-2.95-0.07-4.4-0.09c-9.51-0.21-18.32-0.1-25.48,0.45   c-1.55,0.13-3.02,0.28-4.4,0.45c-2.99,0.35-5.57,0.84-7.66,1.44c-2.35,0.67-4.06,1.53-5.02,2.57c0,0,0.12-0.89,0.28-2.57   c0.1-1.07,0.23-2.46,0.35-4.14c0.06-0.79,0.12-1.64,0.18-2.55c0.34-5.82,0.6-14.07,0.19-23.75c-0.06-1.35-0.13-2.71-0.21-4.12   c-0.48-8.1-1.45-17.04-3.17-26.32c-0.25-1.36-0.53-2.74-0.81-4.12c-0.88-4.21-1.92-8.48-3.15-12.75c-0.22-0.76-0.44-1.51-0.67-2.27   c-1.22-4-2.21-7.76-2.99-11.29c-0.31-1.41-0.59-2.79-0.84-4.12c-1.17-6.16-1.7-11.56-1.8-16.22c-0.09-3.84,0.12-7.2,0.5-10.09   c0.13-1.14,0.29-2.21,0.48-3.23c0.06-0.31,0.12-0.6,0.19-0.89c1.55-7.58,4.12-10.9,4.12-10.9s-2.45,0,0.34-5.59   c0.73-1.45,1.92-3.56,3.58-6.09c0.76-1.16,1.63-2.42,2.6-3.74c0.95-1.31,2.01-2.68,3.15-4.12c2.86-3.55,6.32-7.39,10.36-11.19   c1.39-1.31,2.86-2.63,4.4-3.9c4.83-4.08,10.34-7.95,16.53-11.22c2.85-1.5,5.82-2.87,8.95-4.06c0.04-0.03,0.1-0.04,0.15-0.06   c1.39-0.54,2.8-1.04,4.25-1.5c1.86-0.6,3.77-1.13,5.72-1.6c0.04-0.01,0.07-0.03,0.12-0.03c2.79-0.66,5.68-1.19,8.65-1.54   c1.85-0.22,3.73-0.37,5.63-0.45l5.35,0.23l4.4,0.21l11.72,0.53c0,0,3.02,0.6,7.66,1.92c0.25,0.07,0.5,0.15,0.76,0.22   c0.23,0.07,0.47,0.13,0.7,0.22c1.44,0.43,2.98,0.91,4.64,1.47c0.29,0.12,0.6,0.22,0.91,0.32c1.13,0.4,2.29,0.82,3.48,1.28   c2.17,0.84,4.43,1.77,6.72,2.85c1.28,0.59,2.57,1.22,3.86,1.89c0,0,0.09,0.04,0.26,0.15c5.24,2.74,10.39,6.12,14.64,10.21   c1.16,1.1,2.24,2.26,3.26,3.48c0.4,0.47,0.78,0.94,1.14,1.41c2.49,3.07,4.8,6.15,6.89,9.18c0.97,1.39,1.89,2.77,2.76,4.12   c4.43,6.84,7.83,13.25,10.12,18.42c1.39,3.15,2.38,5.84,2.92,7.89C1239.22,523.28,1239.36,523.96,1239.45,524.55z"></path>
  <g opacity=".3">
    <path fill="#f98800" d="M1096.8 476.98v169.51c-1.55.13-3.02.28-4.4.45V480.88C1093.79 479.57 1095.26 478.25 1096.8 476.98zM1126.68 460.14v185.98c-1.48-.03-2.95-.07-4.4-.09v-184.4h.15C1123.82 461.09 1125.23 460.59 1126.68 460.14zM1156.56 456.95v190.6c-.53-.03-1.04-.06-1.57-.09-.94-.06-1.88-.12-2.83-.16V456.75L1156.56 456.95zM1186.43 462.91v183.46c-1.45.16-2.9.31-4.39.44v-185.5c.29.12.6.22.91.32C1184.08 462.03 1185.24 462.45 1186.43 462.91zM1216.3 568.95v72.67c-1.38.28-2.85.57-4.4.87v-92.15c.21.84.41 1.7.65 2.61.31 1.31.63 2.68.98 4.12C1214.4 560.69 1215.34 564.69 1216.3 568.95zM1216.3 482.89v52.1l-4.4 1.98V478c1.16 1.1 2.24 2.26 3.26 3.48C1215.56 481.95 1215.94 482.42 1216.3 482.89z"></path>
  </g>
  <g opacity=".3">
    <path fill="#f98800" d="M1193.14 465.75h-79.81c2.85-1.5 5.82-2.87 8.95-4.06v-.06h60.67c1.13.4 2.29.82 3.48 1.28C1188.6 463.75 1190.86 464.68 1193.14 465.75zM1225.96 496.19h-147.07c.95-1.31 2.01-2.68 3.15-4.12h141.15C1224.17 493.46 1225.09 494.84 1225.96 496.19zM1239.45 524.55l-4.62 2.08h-167.25c.13-1.14.29-2.21.48-3.23.06-.31.12-.6.19-.89H1239C1239.22 523.28 1239.36 523.96 1239.45 524.55zM1213.53 557.07h-143.81c-.31-1.41-.59-2.79-.84-4.12h143.66C1212.86 554.25 1213.18 555.63 1213.53 557.07zM1220.38 587.5h-143.03c-.25-1.36-.53-2.74-.81-4.12h142.96C1219.8 584.74 1220.09 586.12 1220.38 587.5zM1226.02 617.94h-145.29c-.06-1.35-.13-2.71-.21-4.12h144.85C1225.59 615.21 1225.81 616.59 1226.02 617.94zM1202.08 644.24c-4.86.79-10.15 1.54-15.65 2.13-1.45.16-2.9.31-4.39.44-4.64.43-9.39.73-14.11.85-3.83.1-7.64.09-11.37-.1-.53-.03-1.04-.06-1.57-.09-.94-.06-1.88-.12-2.83-.16-.62-.04-1.23-.09-1.85-.12-.01 0-.01 0-.03 0-7.91-.45-15.93-.84-23.6-1.07-1.48-.03-2.95-.07-4.4-.09-9.51-.21-18.32-.1-25.48.45-1.55.13-3.02.28-4.4.45-2.99.35-5.57.84-7.66 1.44h-4.74c.1-1.07.23-2.46.35-4.14H1202.08z"></path>
  </g>
  <path fill="#6d6e71" d="M1301.51,468.89l-0.45,0.76c-0.26,0.48-0.8,0.68-1.06,0.76c-0.08,0.02-0.13,0.04-0.13,0.04   s-0.05,0.01-0.14,0.03l-0.69,0.16l-1.04,0.23l-0.75,0.17l-1.05,0.23c-0.34,0.08-0.62,0.13-0.81,0.18   c-1.02,0.23-0.76-0.45-0.76-0.45l0.27-0.57L1301.51,468.89z"></path>
  <path fill="#f9cb93" d="M1239.45,524.55l-30.54,13.77l-2.98-10.37l30.15-13.33C1237.98,518.94,1239.13,522.4,1239.45,524.55z"></path>
  <path fill="#f98800" d="m1239.45 524.55-9.53 4.3c-9.93-46.82-30.1-59.61-32.65-61.05 6.66 3.49 13.17 7.99 17.9 13.69 9.92 11.93 17.02 24.32 20.92 33.14C1237.98 518.94 1239.13 522.4 1239.45 524.55zM1167.93 647.66c-4.37.12-8.71.07-12.94-.19-1.55-.09-3.11-.19-4.68-.28-.01 0-.01 0-.03 0-15.06-.87-30.57-1.48-43.27-1.19h-.04c-13.79.32-24.28 1.7-27.24 4.94 0 0 3.12-23.62-.7-52.82-1.14-8.82-2.93-18.14-5.63-27.49l24.94-25.7 30.26-18.47 4.75-9.74c-.59 1.89-12.7 40.75-5.79 70.8C1131.36 604.15 1140.22 634.04 1167.93 647.66z" opacity=".3"></path>
  <path fill="#f9cb93" d="M1128.59,526.47c0,0-6.51,18.23-17.32,15.17c-5.37-1.53-17.73-6.13-30.41-11.95   c-4.31-1.98-8.67-4.09-12.79-6.28c1.54-8.21,4.31-11.79,4.31-11.79s-2.45,0,0.34-5.59c0.73-1.45,1.92-3.56,3.58-6.09h0.01   c0,0,4.14,2.32,10.39,5.69C1097.71,511.56,1115.33,520.79,1128.59,526.47z"></path>
  <path fill="#fff" d="M1132.26,458.58c-3.17,1.03-34.69,11.93-45.56,47.04c-1.07,3.43-1.94,7.11-2.57,11.03   c-0.88,5.54-1.99,9.81-3.27,13.03c-4.31-1.98-8.67-4.09-12.79-6.28c1.54-8.21,4.31-11.79,4.31-11.79s-2.45,0,0.34-5.59   c0.73-1.45,1.92-3.56,3.58-6.09C1084.36,487.68,1103.31,465.51,1132.26,458.58z" opacity=".5"></path>
  <path fill="#fff" d="M1094.47,626.64c-1.22-1.2-2.48-2.49-3.76-3.83c0.35,0.38,0.72,0.75,1.09,1.11   C1092.75,624.89,1093.65,625.79,1094.47,626.64z"></path>
  <path fill="#f9cb93" d="M1176.7,459.62c-3.98,5.19-12.23,11.46-22.09,8.93c-9.86-2.51-13.44-11.59-13.44-11.59   c0.56-0.07,1.13-0.13,1.7-0.18c0.47-0.04,0.95-0.09,1.44-0.12c0.59-0.04,1.17-0.09,1.76-0.12c0.23-0.01,0.48-0.03,0.73-0.04   l21.47,0.97c0,0,0.43,0.09,1.19,0.25c0.85,0.19,2.11,0.5,3.7,0.91c0.4,0.1,0.81,0.22,1.23,0.34   C1175.12,459.17,1175.89,459.39,1176.7,459.62z"></path>
  <path fill="#f98800" d="M1169.47,457.73c-1.51,2.79-5.63,7.13-13.25,5.88c-7.63-1.26-10.15-7.06-10.15-7.06   c0.23-0.01,0.48-0.03,0.73-0.04l21.47,0.97C1168.28,457.48,1168.71,457.57,1169.47,457.73z" opacity=".3"></path>
  <path fill="#ffc7ab" d="M1168.28,457.48c-10.47,11.53-21.47-0.97-21.47-0.97c3.49-2.63,4.44-6.6,4.52-9.95   c0.1-3.4-0.72-6.16-0.72-6.16l17.09-1.86C1164.89,449.63,1168.28,457.48,1168.28,457.48z"></path>
  <path fill="#f9cb93" d="M1227.94,638.96c0,0-4.46,1.17-11.63,2.65c-1.38,0.28-2.85,0.57-4.4,0.87c-2.98,0.59-6.29,1.17-9.83,1.76   c-4.86,0.79-10.15,1.54-15.65,2.13c-1.45,0.16-2.9,0.31-4.39,0.44c-4.64,0.43-9.39,0.73-14.11,0.85c-3.83,0.1-7.64,0.09-11.37-0.1   c-0.53-0.03-1.04-0.06-1.57-0.09c-0.94-0.06-1.88-0.12-2.83-0.16c-0.62-0.04-1.23-0.09-1.85-0.12c-0.01,0-0.01,0-0.03,0   c-7.91-0.45-15.93-0.84-23.6-1.07c-1.48-0.03-2.95-0.07-4.4-0.09c-9.51-0.21-18.32-0.1-25.48,0.45c-1.55,0.13-3.02,0.28-4.4,0.45   c-2.99,0.35-5.57,0.84-7.66,1.44c-2.35,0.67-4.06,1.53-5.02,2.57c0,0,0.12-0.89,0.28-2.57c0.1-1.07,0.23-2.46,0.35-4.14   c0.06-0.79,0.12-1.64,0.18-2.55l1.22-0.38c0,0,47.51-4.3,73.68-0.06c26.17,4.25,70.58-8.95,70.58-8.95l1.66-0.54   C1227.88,634.46,1227.98,636.88,1227.94,638.96z"></path>
  <path fill="none" stroke="#fff" stroke-linecap="round" stroke-miterlimit="10" d="M1081.76,641.31c0,0,0.89-0.08,2.49-0.21"></path>
  <path fill="none" stroke="#fff" stroke-dasharray="4.842 9.684" stroke-linecap="round" stroke-miterlimit="10" d="M1093.9,640.42c15.85-0.98,43.67-2.06,61.53,0.83c19.75,3.2,49.91-3.53,63.5-7.03"></path>
  <path fill="none" stroke="#fff" stroke-linecap="round" stroke-miterlimit="10" d="M1223.61,632.98c1.54-0.43,2.4-0.68,2.4-0.68"></path>
  <path fill="#f98800" d="M1227.94,638.96c0,0-40.24,10.5-72.95,8.51c-1.55-0.09-3.11-0.19-4.68-0.28c23.41,0.41,48.15-1.97,58.6-17.84   c17.71-26.89-7.41-115-7.96-117.68l7.96,26.65l0.01,0.06C1209.51,540.64,1228.42,614.3,1227.94,638.96z" opacity=".3"></path>
  <path fill="#fff" d="M1079.73,650.94c0,0,3.12-23.62-0.7-52.82l4.77-3.54l0.34,20.95c0,0-1.04,28.91,22.84,30.47   C1093.18,646.32,1082.69,647.7,1079.73,650.94z" opacity=".5"></path>
  <path fill="#ffc7ab" d="M1145.91,651.6v0.01c-0.87,4.74-3.8,13.16-13.79,17.22c-1.06-1.57-1.89-3.74-2.33-6.69    c0,0-12.51-0.16-18.53-20.7c0,0-0.03-0.78,0.06-1.94c0.34-4.61,2.57-15.26,16.22-7.32c0,0,9.75,10.09,15.77,14.59    c0.35,0.26,0.67,0.57,0.95,0.92c0,0,0,0,0,0.01C1145.09,648.74,1145.6,650.08,1145.91,651.6z"></path>
  <path fill="#ffc7ab" d="M1127.55,632.2l-14.14,8.04l-2.14,1.22c0,0-3.26-2.39-8.21-6.78c-0.13-0.12-0.26-0.22-0.38-0.32    c-0.41-0.37-0.84-0.75-1.28-1.14c-0.06-0.06-0.09-0.09-0.09-0.09c-2.01-1.8-4.25-3.92-6.62-6.26l-0.22-0.22    c-1.22-1.2-2.48-2.49-3.76-3.83c-0.72-0.75-1.42-1.5-2.1-2.26c-12.16-13.22-25.82-31.85-31.6-53.35    c-5.66-21.09,15.36-55.59,15.36-55.59l11.35,5.68c0,0,0.01,0.01,0.06,0.03l39.03,19.49c0,0-10.8,11.4-12.56,32.55    c-0.67,8.05,0.57,16.84,2.65,25.23C1117.87,614.54,1127.55,632.2,1127.55,632.2z"></path>
  <path fill="#fff" d="M1088.62,620.55c-12.24-13.14-25.82-31.85-31.6-53.35c-5.66-21.09,15.36-55.59,15.36-55.59l6.51,3.25    C1074.91,521.17,1040.15,568.51,1088.62,620.55z" opacity=".5"></path>
  <path fill="#fcb89a" d="M1112.92 594.59c-12.76-23.09-3.7-52.95-7-58.85-3.2-5.69-21.03-17.68-22.13-18.42l39.03 19.49c0 0-10.8 11.4-12.56 32.55C1109.59 577.41 1110.84 586.2 1112.92 594.59zM1145.91 651.6v.01c-.87 4.74-3.8 13.16-13.79 17.22-1.06-1.57-1.89-3.74-2.33-6.69 0 0-12.51-.16-18.53-20.7 0 0-3.26-2.39-8.21-6.78 1.7 1.36 4.55 3.36 8.27 4.84.66.25 1.36.5 2.08.72 2.19.69 4.62 1.14 7.25 1.22 0 0-2.17 16.8 7.94 19 9.89 2.16 15.43-12.09 15.68-12.72C1145.09 648.74 1145.6 650.08 1145.91 651.6zM1168.28 457.48c-11.29-1.2-15.46-6.53-16.96-10.91.1-3.4-.72-6.16-.72-6.16l17.09-1.86C1164.89 449.63 1168.28 457.48 1168.28 457.48z"></path>
  <path fill="#414042" d="M1171.53,431.71c0,0,4.17-0.65,2.73-5.34c0,0,3.51-0.65,2.08-4.69c-1.43-4.04-4.82-2.86-4.82-2.86   s3.12-2.34,0.91-5.34c-2.21-2.99-5.6-1.04-5.6-1.04s2.86-4.82-1.17-6.12c-4.04-1.3-7.03,1.04-6.25,4.82c0,0-0.26-6.19-6.38-5.18   s-3.51,6.22-3.51,6.22s-2.99-1.69-5.47,0.13c-2.47,1.82-0.52,4.56-0.52,4.56s-3.12-1.39-4.95,1.91c-1.82,3.3,1.43,5.25,3.78,5.64   c0,0-4.04,1.04-2.99,5.34s4.3,3.51,4.3,3.51s-1.17,5.49,6.51,3.14S1171.53,431.71,1171.53,431.71z"></path>
  <path fill="#ffc7ab" d="M1171.7,425.66c0,0,3.48,17.77-4.59,22.2c-8.07,4.43-16.14-3.12-16.92-9.24c0,0-2.08,1.95-4.43-2.6   c-2.34-4.56-1.13-14.19,5.73-5.73c0,0,5.79,1.69,4.49-5.73c0,0,0.78,3.78,4.04,3.32c2.97-0.42,3.32-3.19,3.32-3.19   s0.54,3.21,3.02,3.76C1167.76,428.75,1170.3,428.85,1171.7,425.66z"></path>
  <path fill="#414042" d="M1154.61,428.59c0,0-0.98,3.25-0.59,7.82h-1.37l-2.34-12.77L1154.61,428.59z"></path>
  <path fill="none" stroke="#fff" stroke-dasharray="2 4" stroke-linecap="round" stroke-miterlimit="10" d="M1205.93,527.95c0,0,15.41-6.85,30.15-13.33"></path>
  <path fill="none" stroke="#fff" stroke-dasharray="3 5" stroke-linecap="round" stroke-miterlimit="10" d="M1076.3,499.93c0,0,18.77,11.68,52.29,26.54"></path>
  <path fill="none" stroke="#2b3990" stroke-linecap="round" stroke-miterlimit="10" stroke-width="2" d="M1120.46,671.14c4.69-0.18,8.52-1.01,11.66-2.3c9.99-4.06,12.92-12.48,13.79-17.22v-0.01"></path>
  <path fill="#f7941d" d="M1241.95,939.57h-85.81l-1.73-7.3l-6.28-26.42c-0.23-0.95,0.53-1.85,1.51-1.76c1.88,0.16,4.96,0.4,8.71,0.53   c6.89,0.26,16.06,0.23,24.16-1.07c1.98-0.32,3.9-0.72,5.71-1.2c1.09-0.29,2.14,0.56,2.1,1.67l-0.45,11.03   c0,0,24.77,4.47,36.39,7.41h0.01c0.88,0.22,1.69,0.43,2.39,0.63c0.89,0.25,1.64,0.48,2.21,0.69   C1237.94,926.37,1241.71,936.74,1241.95,939.57z"></path>
  <path fill="#e6e7e8" d="M1241.95,939.57h-85.81l-1.73-7.3h67.03c0,0,0.43-7.85,4.81-9.81h0.01c1.98,0.5,3.58,0.94,4.61,1.32   c1.45,0.53,2.76,1.38,3.92,2.43C1239.33,930.3,1241.75,937.31,1241.95,939.57z"></path>
  <circle cx="1164.37" cy="917.17" r="7.15" fill="#e6e7e8"></circle>
  <path fill="none" stroke="#d1d3d4" stroke-miterlimit="10" stroke-width=".75" d="M1187.97,909.65c0,0,10.71-3.6,13.63,0.12c2.92,3.72-14.6-3.99-21.78,1.13   C1172.64,916.02,1184.81,910.51,1187.97,909.65z"></path>
  <path fill="none" stroke="#d1d3d4" stroke-linecap="round" stroke-miterlimit="10" stroke-width=".75" d="M1182.9,920.64c1.4-3.81,5.43-11.03,6.86-11.45s10.63,3.75,12.96,8.1"></path>
  <path fill="#d7ecff" d="M1188.83,939.57h-32.7l-1.73-7.3l-6.28-26.42c-0.23-0.95,0.53-1.85,1.51-1.76c1.88,0.16,4.96,0.4,8.71,0.53   C1158.35,904.62,1153,938.63,1188.83,939.57z" opacity=".39"></path>
  <path fill="#231f20" d="M1234.77,926.21h0.01c4.55,4.09,6.97,11.1,7.16,13.36h-14.02C1241.83,939.57,1234.77,926.21,1234.77,926.21z" opacity=".16"></path>
  <path fill="#f7941d" d="M1117.14,942.77l-29.6-24.92l-0.13-0.11c-0.03-0.03-0.08-0.08-0.14-0.13l-28.22-23.76l4.18-7.13l12.12-20.68   c0.45-0.77,1.52-0.87,2.11-0.2c1.31,1.47,3.65,4,6.81,6.95c5.55,5.22,13.63,11.76,22.98,16.21c0.89,0.42,0.98,1.64,0.2,2.23   l-5.98,4.44c0,0,16.39,14.66,20.69,28.42c0.61,1.97,0.97,3.92,1.01,5.8C1123.37,940.46,1117.14,942.77,1117.14,942.77z"></path>
  <path fill="#e6e7e8" d="M1123.11,931.9c-0.57,8.84-5.97,10.87-5.97,10.87l-7.52-6.33c-0.01,0-0.01-0.02-0.03-0.02l-50.54-42.57   l4.18-7.13l47.2,42.28c0,0,4.54-5.4,11.72-4.92c0.61,1.97,0.97,3.92,1.01,5.8c0.01,0.43,0.01,0.85-0.01,1.25   C1123.16,931.13,1123.16,931.43,1123.11,931.9z"></path>
  <circle cx="1079.9" cy="886.14" r="6.85" fill="#e6e7e8"></circle>
  <path fill="none" stroke="#d1d3d4" stroke-miterlimit="10" stroke-width=".75" d="M1102.87,894.09c0,0,8.23-5.09,11.02-1.83c2.79,3.27-12.26-1.87-17.46,4.23   C1091.22,902.58,1100.41,895.39,1102.87,894.09z"></path>
  <path fill="none" stroke="#d1d3d4" stroke-linecap="round" stroke-miterlimit="10" stroke-width=".75" d="M1100.05,905.69c0.69-3.97,3.1-11.69,4.21-12.31c1.11-0.61,9.03,2.19,11.42,6.17"></path>
  <path fill="#d7ecff" d="M1087.28,917.61l-28.22-23.76l4.18-7.13l12.12-20.68c0.45-0.77,1.52-0.87,2.11-0.2   c1.31,1.47,3.65,4,6.81,6.95c0,0-13.52,10.76-10.48,23.4C1076.56,907.65,1085.6,916.12,1087.28,917.61z" opacity=".39"></path>
  <path fill="#231f20" d="M1123.01 931.37c-.07 8.85-5.35 11.19-5.35 11.19l-7.86-5.9C1121.58 942.42 1122.89 934.03 1123.01 931.37zM1127.46 928.38c0-.26.02-.5.01-.77C1127.47 927.62 1127.49 927.91 1127.46 928.38z" opacity=".16"></path>
  <circle cx="1162.52" cy="433.39" r="1.25" fill="#231f20"></circle>
  <circle cx="1169.89" cy="433.39" r="1.25" fill="#231f20"></circle>
  <path fill="none" stroke="#231f20" stroke-linecap="round" stroke-miterlimit="10" stroke-width=".25" d="M1167.51 435.02c0 0 1.86 3.18 2.37 4.13.52.94-2.61 1.24-3.43 1.24M1161.27 442.39c0 0 1.41 2.53 5.19 1.59"></path>
  <path fill="#f4bea6" d="M801.05 876.15c0 0 20.37 18.55 20.8 21.3.42 2.75-29.8 35.02-44.46 45.6-7.25 5.23-11.02-18.22-6.59-25.02 4.43-6.8 13.45-15.37 13.45-15.37l-20.05-18.52L801.05 876.15zM711.19 906.27c0 0 2 28.21.33 30.43-1.68 2.22-52.02 3.28-65.21 3.88-8.93.4 4.61-21.81 12.57-23.37 7.96-1.57 20.4-1.08 20.4-1.08l.49-30.7L711.19 906.27z"></path>
  <path fill="#e8882a" d="M788.85,635.54l-1.77,23.25l-21.9,65.41l-0.03,0.06l-7.49,25.16l-1.95,7.13l-30.63,111.89l-2.66,9.7   l-3.86,14.11l-4.15,15.14l-21.86-0.28l-18.23-0.23l-0.43-14.62l-0.06-2.11l-0.22-7.41l-0.87-29.7l-0.22-7.33l-1.06-36.3   c0-0.23-0.01-0.38-0.01-0.44v-0.01l-2.46-83.93C669.01,724.99,760,624.38,788.85,635.54z"></path>
  <path fill="#c97523" d="m725.09 868.43-2.66 9.7c-17.85 8.95-32.45 12.16-44.2 12.16-1.51 0-2.96-.06-4.39-.16l-.22-7.41C686.1 883.8 702.93 880.69 725.09 868.43zM718.74 793.4c-7.77 31.51-19.2 50.12-34.95 56.93-3.52 1.51-7.17 2.42-11.02 2.68l-.22-7.33c2.92-.25 5.71-.95 8.33-2.08 13.32-5.75 23.66-23.23 30.74-51.96"></path>
  <path fill="#ffc7ab" d="M768.33,590.74c-20.65,2.02-40.28,5.54-53.07,8.13c-4.14,0.85-7.55,1.57-10.06,2.13   c-1,0.22-1.83,0.41-2.52,0.57c-1.47,0.34-2.24,0.53-2.24,0.53l-2.01-6.22l-0.13-0.38l-3.84-11.85l71.13-11.93l0.21,1.41   L768.33,590.74z"></path>
  <path fill="#f4bea6" d="M768.33,590.74c-20.65,2.02-40.28,5.54-53.07,8.13c-4.14,0.85-7.55,1.57-10.06,2.13   c-1,0.22-2.94,5.75-3.63,5.92c1.11-2.64,8.44-7.94,12.42-10.54c13.52-8.79,40.23-9.48,40.23-9.48c-8.95-3.02-22.82-3.7-22.82-3.7   l34.38-10.08L768.33,590.74z"></path>
  <path fill="#f4bea6" d="M715.26,598.87c-9.17,1.86-14.83,3.23-14.83,3.23l-2.14-6.6l15.23-13.42l8.57,2.16   C722.08,584.23,712.77,591.18,715.26,598.87z"></path>
  <path fill="#eaa98f" d="M712.33,583.13v3.39c0,0-8.89,5.03-7.13,14.48c-3.07,0.69-4.77,1.1-4.77,1.1l-2.01-6.22L712.33,583.13z"></path>
  <path fill="#f4bea6" d="M726.32,541.97c0,0-13.26,23.98-25.95,44.9c-3.73,6.15-14.9,17.12-27.46,21.33   c-9.77,3.32-20.36,2.52-28.9-7.8c-0.56-0.67-1.11-1.38-1.64-2.13c-19.41-27.22-22.59-60.74-22.59-60.74   c-9.33-15.02-0.94-36.77,1.09-25.46c2.04,11.31,41.25,55.15,41.25,55.15l25.23-67.46L726.32,541.97z"></path>
  <path fill="#eaa98f" d="M680.87,540.48c0,0,0.75,32.02-15.44,33.59c-16.19,1.57,18.86,3.28,18.86,3.28l7.89-16.01l-5.69-24.73   L680.87,540.48z"></path>
  <path fill="#00aeef" d="M772.63,579.08c0,0-2.26,4.08-22.33,4.24c-0.22,0-0.44,0.01-0.65,0.01c-2.54,0-5.34-0.04-8.46-0.18   c-7.32-0.31-13.66,0.15-19.11,1.07c-19.58,3.21-27.64,12.15-27.64,12.15c-0.34-1.29-1-3.49-1.88-6.38   c-3.43-11.46-10.19-33.66-13.64-51.94c-0.12-0.63-0.23-1.26-0.34-1.88v-0.01c-0.67-3.77-1.2-7.45-1.53-10.94v-0.01   c-0.84-8.89-0.38-16.58,2.26-21.42c0.13-0.22,0.26-0.44,0.4-0.66c2.48-3.98,5.47-7.89,8.49-11.49c0.48-0.57,0.97-1.14,1.45-1.72   c0.13-0.15,0.22-0.25,0.26-0.29c0,0,0,0,0-0.01h0.01c1.64-1.89,3.26-3.67,4.77-5.27c0.87-0.92,1.7-1.77,2.48-2.57   c0.4-0.4,0.78-0.78,1.14-1.14c0.37-0.37,0.72-0.72,1.06-1.06c0.01-0.01,0.03-0.03,0.04-0.04l0.43-0.43   c1.48-1.44,2.63-2.49,3.27-3.08l0.32-0.31l0.26-0.23l0.01-0.01l1.69-0.16l13.52-1.29c0,0,1.64,0.37,4.4,1.19   c3.81,1.1,9.74,3.08,16.43,6.15c1.69,0.76,3.39,1.7,5.1,2.79c0,0,0.03,0.03,0.07,0.06c11.66,7.44,23.22,22.15,23.78,42.79   c0.06,1.76,0.13,3.73,0.23,5.82c0.16,3.18,0.38,6.7,0.63,10.33c0.15,2.02,0.29,4.08,0.45,6.13v0.13c0,0.01,0.01,0.03,0.01,0.04   c0.12,1.67,0.25,3.33,0.38,4.97c0.69,8.48,1.39,16.33,1.82,20.8C772.5,577.65,772.63,579.08,772.63,579.08z"></path>
  <path fill="#03a6d8" d="M751.59,513.87c0,0-4.29,46.74-29.51,70.36l-14.33-0.91l4.57-46.72C712.32,536.6,738.27,498.78,751.59,513.87   z"></path>
  <path fill="#eaa03d" d="M700.48,610.74c0,0,3.96,1.34,7.65,0s-2.47-6.42-2.47-6.42L700.48,610.74z"></path>
  <path fill="#fbb040" d="M803.82,872.42l-16.75,13.61l-14.32,11.62c0,0-4.53-3.51-11.95-9.51c-4.09-3.33-9.08-7.41-14.67-12.07   c-1.72-1.42-3.48-2.9-5.3-4.44c-0.87-0.73-1.75-1.47-2.63-2.23c-1.42-1.2-2.88-2.45-4.34-3.71c-0.48-0.41-0.89-0.75-1.2-1.03   c-0.23-0.21-0.47-0.41-0.7-0.6c-0.07-0.06-0.12-0.1-0.15-0.13l-0.01-0.01c-2.29-1.97-4.62-3.99-6.98-6.07   c-2.16-1.91-4.36-3.84-6.56-5.82c-0.04-0.04-0.1-0.09-0.16-0.13c-6.57-5.87-13.3-12.04-19.95-18.36c-0.01,0-0.03-0.01-0.03-0.03   c-18.41-17.5-36.1-36.13-47.55-52.44c-0.65-0.91-1.26-1.82-1.86-2.71c-1.2-1.8-2.33-3.56-3.36-5.3   c-6.06-10.17-8.99-19.08-7.23-25.76c2.48-9.42,12.5-31.51,23.89-55.23c0.32-0.67,0.65-1.33,0.97-2.01   c0.43-0.89,0.87-1.79,1.29-2.68c6.25-12.85,12.78-25.98,18.64-37.62c0,0,0.34-0.65,0.91-1.77c0.63-1.25,1.25-2.46,1.85-3.67   c0.01-0.04,0.03-0.06,0.03-0.06c2.86-5.68,5.52-10.9,7.82-15.42c0.48-0.95,0.97-1.89,1.42-2.79c0.54-1.06,1.06-2.07,1.55-3.02   c3.76-7.33,6.07-11.79,6.07-11.79l-0.75-1.63l-3.07-6.76c12.31-15.52,70.33-13.89,70.33-13.89c0.59,0.81,0.73,2.11,0.78,3.54   c0.07,2.46-0.18,5.31,1.03,6.59c8.86,9.42,16.14,22.31,17.95,36.98c0.16,1.16,0.26,2.33,0.34,3.52c0.18,2.77,0.15,5.6-0.12,8.49   c-0.62,7.03-2.57,14.35-6.22,21.77c-4.56,9.29-13.77,23.45-23.22,37.18c-0.01,0.01-0.01,0.01-0.01,0.01   c-3.2,4.65-6.41,9.24-9.49,13.57c0,0-0.06,0.07-0.16,0.21c-10.68,15.04-19.6,26.89-19.6,26.89l5.6,9.52l2.3,3.9l7.23,12.29h0.01   l13.99,23.76l3.37,5.74l1.13,1.91l2.43,4.12l8.1,13.77l1.61,2.74l2.66,4.52l6.26,10.63l11.09,18.82L803.82,872.42z"></path>
  <path fill="#bbefff" d="M723.35,475.22c-5.75,4.71-26.19,16.14-27,10.84c-0.45-2.93,2.35-5.66,3.05-6.47   c0.01-0.01,0.03-0.03,0.04-0.04c0.26-0.29,0.43-0.43,0.43-0.43c0.69-0.66,1.29-1.25,1.82-1.73c0.01-0.01,0.01-0.01,0.01-0.01   c1.28-1.22,2.04-1.89,2.04-1.89l15.21-1.45c0,0,0.13,0.03,0.37,0.09C719.94,474.26,721.35,474.61,723.35,475.22z"></path>
  <path fill="#03a6d8" d="M689.95 489.62c0 0 0 0-.01.01 0 0 0 0 0-.01H689.95zM722.08 584.23c-19.58 3.21-27.64 12.15-27.64 12.15-1.69-6.4-11.21-35.44-15.52-58.32-2.74-14.55-3.52-28.05.79-34.93 2.48-3.98 5.47-7.89 8.49-11.49.48-.57.97-1.14 1.45-1.72-1.54 1.83-8.93 11.56-4.9 25.9 4.47 15.96 19.64 69.53 37.17 68.4C721.98 584.23 722.04 584.22 722.08 584.23zM770.05 549.41c-.01-.09-.01-.13-.01-.13h.01V549.41zM772.63 579.08c0 0-2.26 4.08-22.33 4.24 18.73-.32 20.45-19.45 20.14-28.9C771.5 567.49 772.63 579.08 772.63 579.08z"></path>
  <path fill="#fff" d="M692.44,489.97c-0.07,0.12-0.15,0.23-0.22,0.35C692.26,490.25,692.32,490.13,692.44,489.97z" opacity=".49"></path>
  <path fill="#fff" d="M703.13,476.04l-3.7,3.51l0.43-0.43C701.34,477.68,702.49,476.62,703.13,476.04z"></path>
  <path fill="#ffc7ab" d="M719.46,474.01c-0.95,0.6-1.85,1.16-2.68,1.67c-19.54,11.85-13.33,0.32-13.04-0.19c0-0.01,0-0.01,0-0.01   c3.02-3.49,2.13-12.79,2.13-12.79s10.84-8.95,10.87-3.02c0.01,0.4-0.04,0.88-0.15,1.44C714.91,469.74,719.46,474.01,719.46,474.01z   "></path>
  <path fill="#03a6d8" d="M768.96,532.82c-3.71-29.15-22.71-47.38-24.01-48.61c11.66,7.44,23.22,22.15,23.78,42.79   C768.79,528.76,768.86,530.72,768.96,532.82z"></path>
  <circle cx="724.65" cy="429.68" r="8.33" fill="#414042"></circle>
  <path fill="#eaa98f" d="M719.46,474.01c-22.77,14.55-16.03,2.02-15.72,1.48C703.73,475.77,703.9,482.73,719.46,474.01z"></path>
  <path fill="#f4bea6" d="M719.46,474.01c-0.95,0.6-1.85,1.16-2.68,1.67c-0.09-0.03-0.16-0.07-0.25-0.12   c-7.99-4.44-7.72-13.88-7.72-13.88l4.24-2.98l3.68,0.95c0.01,0.4-0.04,0.88-0.15,1.44C714.91,469.74,719.46,474.01,719.46,474.01z"></path>
  <path fill="#414042" d="M698.57,457.57c-4.41-2.34-9.36-11.36-5.77-19.33c3.59-7.97,20.04-15.61,30.61-3.79   c10.57,11.82,6.43,21.14-6.12,27.57C704.73,468.44,698.57,457.57,698.57,457.57z"></path>
  <path fill="#ffc7ab" d="M696.72,446.2c0,0-2.84,11.92,5.6,17.85c8.45,5.93,17.56-1.99,17.24-6.7c0,0,3.62-1.19,2.77-7.71   c-1.02-7.74-4.59-2.27-4.59-2.27s-8.53,6.46-15.19-3.85C702.55,443.51,699.77,448.53,696.72,446.2z"></path>
  <path fill="#fff" d="M629.69,560.51c0-0.01,0-0.01-0.01-0.03c-0.04-0.12-0.09-0.23-0.12-0.35   C629.79,560.59,629.83,560.7,629.69,560.51z" opacity=".39"></path>
  <path fill="#f99932" d="M789.06 648.05c-6.79-7.7-19.3-8.32-25.32-.94-9.84 12.09-9.61 23.75-9.4 34.03.19 9.45.38 18.36-9.09 22.74-5.68 2.61-12.29 3.58-18.69 4.5-14.18 2.07-22.9 3.95-23.15 16.15-.18 8.46 12.59 25.14 32.55 32.67l2.3 3.9 7.23 12.29c-27.27-10.24-48.21-36.35-47.95-48.98.37-17.79 15.14-19.95 28.16-21.84 5.98-.87 12.17-1.76 17.07-4.03 5.74-2.64 5.9-7.47 5.69-17.28-.22-10.74-.48-24.1 10.72-37.84 10.47-12.88 21.62-11.44 29.64-7.38.16 1.16.26 2.33.34 3.52C789.35 642.33 789.32 645.16 789.06 648.05zM715.1 636.41c-.87 9.37-8.46 16.09-15.81 22.6-6.26 5.54-12.19 10.8-12.7 16.68-.51 5.85-3.9 11.38-9.09 14.79-3.21 2.1-6.78 3.2-10.28 3.2-1.26 0-3.46-.89-5.21-1.61.32-.67.65-1.33.97-2.01.43-.89 3.52-7.24 3.95-8.13.87 4.05 4.16 5.74 7.36 3.65 3.7-2.42 6.1-6.29 6.47-10.37.7-8.23 7.79-14.51 14.65-20.58 6.48-5.74 13.2-11.69 13.86-18.75.31-3.33-.81-4.47-1.17-4.86-2.07-2.13-13.43-1.07-15.77.15.48-.95 2.16-4.23 2.62-5.12.54-1.06 1.06-2.07 1.55-3.02 5.94-.26 12.16.16 15.81 3.92C714.53 629.22 715.47 632.42 715.1 636.41zM645.34 773.04c15.99-1.44 40.92 3.43 53.42 24.76 14.8 25.23 23.48 28.91 29.84 31.6 2.83 1.2 5.52 2.35 8.05 4.9 5.31 5.3 10.39 28.02 9.48 41.78-1.72-1.42-3.48-2.9-5.3-4.44-.87-.73-1.75-1.47-2.63-2.23 1.48-11.56-1.8-27.06-5.69-30.96-1.75-1.73-3.62-2.54-6.22-3.62-7.08-3.02-16.81-7.14-32.59-34.05-9.17-15.64-23.67-22.27-43.14-19.71L645.34 773.04zM778.81 829.96c-1.76-.29-3.81-.47-6-.19-5.13 0-11.02-3.01-15.64-10.02-4.14-6.28-3.11-16.74 2.33-22.59l3.37 5.74 1.13 1.91c-3.48 4.17-3.55 9.27-1.94 11.72 3.08 4.68 7.17 6.7 12.47 6.18l1.61 2.74L778.81 829.96z"></path>
  <path fill="#f98800" d="M789.06 648.05c-.62 7.03-2.57 14.35-6.22 21.77-4.56 9.29-13.77 23.45-23.22 37.18 27.17-44.17 6.01-104.91 6.01-104.91-9.48-1.26-36.49-1.39-36.49-1.39l40.72-8.23c.07 2.46-.18 5.31 1.03 6.59 8.86 9.42 16.14 22.31 17.95 36.98.16 1.16.26 2.33.34 3.52C789.35 642.33 789.32 645.16 789.06 648.05zM719.33 602.85c-.94.22-8.55 2.08-13.95 7.89-4.96 5.34-17.98 30.3-21.56 37.23 3.58-7.11 6.89-13.64 9.7-19.14.48-.95.97-1.89 1.42-2.79.54-1.06 1.06-2.07 1.55-3.02 3.76-7.33 6.07-11.79 6.07-11.79l-.75-1.63 5.1-5.27L719.33 602.85z" opacity=".29"></path>
  <path fill="#ffe7ca" d="M697.88,605.34c0,0,9.74-8.49,28.84-11.32c19.1-2.83,43.38-3.36,43.38-3.36l0.29,6.54   c0,0-49.88-0.47-69.92,13.53L697.88,605.34z"></path>
  <path fill="#fff" d="M654.74 749.29c.59 19.26 16.84 55.51 43.37 84.2-18.41-17.5-36.1-36.13-47.55-52.44-.65-.91-1.26-1.82-1.86-2.71-1.2-1.8-2.33-3.56-3.36-5.3-6.06-10.17-8.99-19.08-7.23-25.76 2.48-9.42 12.5-31.51 23.89-55.23.32-.67.65-1.33.97-2.01.43-.89.87-1.79 1.29-2.68 6.25-12.85 12.78-25.98 18.64-37.62 0 0 .34-.65.91-1.77.63-1.25 1.25-2.46 1.85-3.67C684.72 646.73 654.04 725.97 654.74 749.29zM724.81 857.84c-2.16-1.91-4.36-3.84-6.56-5.82C723.01 855.67 724.99 857.49 724.81 857.84z" opacity=".5"></path>
  <path fill="#f98800" d="M766.44,808.92c-23.66-33.09-61.09-57.42-61.09-57.42c12.91-0.94,42.35-27.99,44.6-30.71   c-10.68,15.04-19.6,26.89-19.6,26.89l5.6,9.52l2.3,3.9l7.23,12.29h0.01l13.99,23.76l3.37,5.74l1.13,1.91L766.44,808.92z" opacity=".29"></path>
  <polygon fill="#ffcf57" points="806.88 872.99 791.57 885.04 791.55 885.04 772.29 900.17 759.62 889.49 760.79 888.15 766.02 883.91 796.16 859.41 798.08 857.84"></polygon>
  <polygon fill="#e8b031" points="720.7 892.24 716.58 908.5 672.27 908.5 670.85 892.24"></polygon>
  <path fill="#fff" d="M698.91 908.5h-26.64l-1.42-16.27h3.07l-.06-2.11-.22-7.41-.87-29.7-.22-7.33-1.06-36.3c.29 6.12 1.48 65.65 14.68 82.86C686.18 892.24 691.36 900.25 698.91 908.5zM791.55 885.04l-19.26 15.14-12.67-10.68 1.17-1.35c-4.09-3.33-9.08-7.41-14.67-12.07-1.72-1.42-3.48-2.9-5.3-4.44-.87-.73-1.75-1.47-2.63-2.23-1.42-1.2-2.88-2.45-4.34-3.71 4.83 3.96 17.51 13.6 32.15 18.22 6.79 2.14 14.01 3.2 21.05 2.13C788.58 885.8 790.07 885.48 791.55 885.04z" opacity=".5"></path>
  <path fill="#bbefff" d="M772.63,579.08c0,0-2.26,4.08-22.33,4.24c-0.22,0-0.44,0.01-0.65,0.01c-2.54,0-5.34-0.04-8.46-0.18   c-7.32-0.31-13.66,0.15-19.11,1.07c-19.58,3.21-27.64,12.15-27.64,12.15c-0.34-1.29-1-3.49-1.88-6.38   c22.11-14.61,38.92-11.06,57.73-10.83c12.15,0.15,18.76-2.2,21.96-3.95C772.5,577.65,772.63,579.08,772.63,579.08z"></path>
  <path fill="#045a68" d="M692.18,536.93c0,0,0.19,0.88,1.96,2.94s27.9,22.8,38.34,22.06l-4.8-10.49   C727.67,551.43,700.37,534.05,692.18,536.93z"></path>
  <path fill="#ffc7ab" d="M732.78,554.98c-11.98,24.45-40.82,58.64-64.06,57.6h-0.12c-0.6-0.03-1.2-0.09-1.8-0.18   c-5.06-0.65-9.81-3.1-14.02-7.82c-0.25-0.26-0.48-0.54-0.72-0.84c-0.09-0.1-0.18-0.22-0.26-0.32c-0.73-0.89-1.44-1.86-2.13-2.9   c-5.97-9.01-10.81-18.28-14.71-27.08c-0.04-0.09-0.07-0.16-0.1-0.21c-1.95-4.4-3.65-8.67-5.16-12.73c0-0.01,0-0.01-0.01-0.03   c-0.04-0.12-0.09-0.23-0.12-0.35c-0.76-2.04-1.45-4.02-2.1-5.94c0-0.01,0-0.01,0-0.03c-5.38-16-7.25-27.43-7.25-27.43   c-9.23-12.82-1.23-24.63,2.63-28.35c0.65-0.65,1.19-1.04,1.5-1.19c2.19-0.98,2.8,9.75,2.8,9.75   c10.85,29.35,45.27,63.28,45.27,63.28l25.32-37.79c0,0,30.7,0.72,35.88,12.86C734.74,547.94,734.65,551.14,732.78,554.98z"></path>
  <path fill="#f4bea6" d="M732.78,554.98c-14.96,30.54-56.22,76.26-80,49.61c20.73,22.99,67.53-29.38,66.68-41.69   c-0.88-12.44-13.36-20.83-13.36-20.83l27.5,3.23C734.74,547.94,734.65,551.14,732.78,554.98z"></path>
  <path fill="#00aeef" d="M751.04,520.2c-3.34,11.21-8.74,22.9-12.85,31.04c-0.26,0.51-0.51,1-0.75,1.47   c-0.23,0.45-0.45,0.88-0.67,1.31c-2.54,4.86-4.3,7.91-4.3,7.91c-8.6-9.87-18.53-16.09-26.37-19.85   c-8.05-3.87-13.92-5.15-13.92-5.15l3.9-7.35l0.69-1.29l0.72-1.35l6.34-11.93c3.64-6.86,9.52-12.41,16.81-15.14   c0.91-0.34,1.82-0.63,2.7-0.87c0.01,0,0.01,0,0.01,0c8.62-2.38,15.7-0.06,20.81,3.11C750.25,505.89,753.09,513.34,751.04,520.2z"></path>
  <path fill="#bbefff" d="M738.19,551.24c-0.26,0.51-0.51,1-0.75,1.47c-0.23,0.45-0.45,0.88-0.67,1.31c-0.21-0.12-0.4-0.26-0.54-0.48   c-0.67-0.98-1.41-1.94-2.19-2.86l-0.01-0.01c-9.2-10.96-24.51-16.97-32.46-19.49h-0.01c-3.07-0.97-5.03-1.42-5.1-1.45   c-0.13-0.03-0.25-0.07-0.37-0.13l0.69-1.29l0.72-1.35C701.05,527.8,726.1,534.33,738.19,551.24z"></path>
  <path fill="#fff" d="M723.33,499.01c-0.32,0.15-10.84,4.81-16.18,25.46c-1.8,7.01-1.83,12.89-1.06,17.6   c-8.05-3.87-13.92-5.15-13.92-5.15l3.9-7.35l0.69-1.29l0.72-1.35l6.34-11.93c3.64-6.86,9.52-12.41,16.81-15.14   C721.54,499.54,722.45,499.24,723.33,499.01z" opacity=".2"></path>
  <path fill="#fff" d="M622.21,525.97c0,0,2.38,17.66,5.25,28.19c-5.38-16-7.25-27.43-7.25-27.43c-9.23-12.82-1.23-24.63,2.63-28.35   l-1.94,7.57C620.9,505.95,615.61,514.97,622.21,525.97z" opacity=".39"></path>
  <path fill="#f4bea6" d="M625.65,523.64c0,0,5.97,10.01,9.11-0.96l-4.14-7.48L625.65,523.64z"></path>
  <path fill="#231f20" d="M615.4,491l13.46,33.13c0.17,0.42,0.75,0.47,0.99,0.08l6.01-9.8c0.24-0.39,0.29-0.88,0.12-1.31l-12.58-33.49    c-0.13-0.35-0.61-0.39-0.8-0.07l-7.01,9.08C615.16,489.34,615.09,490.22,615.4,491z"></path>
  <path fill="#231f20" d="M614.84,491.01l13.46,33.13c0.6,0.87,1.32,0.46,1.56,0.07l5.44-9.79c0.24-0.39,0.29-0.88,0.12-1.31    l-12.01-33.51c-0.37-0.67-1.18-0.38-1.37-0.06l-7.01,9.08C614.59,489.35,614.52,490.23,614.84,491.01z"></path>
  <path fill="#fff" d="M622.69,480.52c0.06-0.08,0.26-0.28,0.47,0.05l0.02,0.02l12.24,32.82c0.15,0.4,0.1,0.85-0.13,1.2l-5.63,8.75    c-0.15,0.24-0.5,0.21-0.6-0.05l-13.13-32.72c-0.24-0.61-0.17-1.27,0.2-1.82l1.69-2.03l0.31,0.69l2.91-3.55l-0.26-0.89l1.91-2.45    L622.69,480.52z"></path>
  <path fill="#ffc7ab" d="M627.22,522.61c0,0,2.66-8.47,1.73-13.5c-0.94-5.03-5.54,8.97-5.54,8.97S623.87,526.52,627.22,522.61z"></path>
  <path fill="#fff" d="M666.8,612.41c-5.06-0.65-9.81-3.1-14.02-7.82c-0.25-0.26-0.48-0.54-0.72-0.84c-0.09-0.1-0.18-0.22-0.26-0.32   c-0.73-0.89-1.44-1.86-2.13-2.9c-5.97-9.01-10.81-18.28-14.71-27.08C636.74,577.04,653.38,609.8,666.8,612.41z" opacity=".39"></path>
  <path fill="#e6e7e8" d="M824.45,896.96c-3.18,4.8-7.19,9.9-11.56,14.95c-0.01,0.01-0.03,0.04-0.04,0.06   c-15.49,17.87-35.28,34.91-37.1,34.82c-1.32-0.06-4.06-1.5-6.35-4.81c-1.82-2.64-3.36-6.48-3.67-11.81   c-0.16-2.8,0.43-5.53,1.45-8.08c3.42-8.36,11.65-14.93,13.99-16.91c1.03-0.87,1.36-1.58,1.36-2.16c0-0.56-0.32-0.98-0.66-1.28   c-0.29-0.25-0.23-0.7,0.1-0.89c6.78-3.74,12.06-8.35,15.9-12.44c0,0,0.01-0.01,0.03-0.03c3.81-4.05,6.19-7.6,7.25-9.27   c0.32-0.54,1.06-0.63,1.53-0.21l12.07,11.19l5.47,5.08C824.73,895.64,824.84,896.39,824.45,896.96z"></path>
  <path fill="#f1f2f2" d="M788.85,905.76c-1.64,1.66-13.8,12.97-16.75,15.68c-2.95,2.71-4.9,0.67-4.9,0.67c0-0.01-0.01-0.01-0.01-0.03   c3.42-8.36,11.65-14.93,13.99-16.91c1.03-0.87,1.36-1.58,1.36-2.16C787.36,902.9,790.13,904.49,788.85,905.76z"></path>
  <path fill="none" stroke="#231f20" stroke-miterlimit="10" stroke-width=".25" d="M772.09,906.36c6.62,2.48,21.01,3.3,21.42-1.13c0.39-4.25-14.8,4.81-25.06,3.47   C764.74,908.21,765.42,903.85,772.09,906.36z"></path>
  <path fill="none" stroke="#231f20" stroke-miterlimit="10" stroke-width=".25" d="M771.81,912.71c0,0,2.21-3.69,6.37-4.86c0,0,7.31,1.4,12.9,8.11"></path>
  <path fill="#f7941d" d="M824.45,896.96c-14.46,21.87-46.37,49.95-48.7,49.83c-1.32-0.06-4.06-1.5-6.35-4.81   c20.3-12.45,42.73-42.61,49.36-51.88l5.47,5.08C824.73,895.64,824.84,896.39,824.45,896.96z"></path>
  <path fill="#231f20" d="M824.45,896.96c-3.18,4.8-7.19,9.9-11.56,14.95c6.03-8.67,3.49-20.01-3.04-24.57   c-6.22-4.36-11.49,0.59-11.94,1.04c3.81-4.05,6.19-7.6,7.25-9.27c0.32-0.54,1.06-0.63,1.53-0.21l12.07,11.19l5.47,5.08   C824.73,895.64,824.84,896.39,824.45,896.96z" opacity=".1"></path>
  <path fill="#e6e7e8" d="M712.55,938.53c-5.6,1.31-12.02,2.29-18.66,2.97c-0.02,0-0.05,0.01-0.07,0.01   c-23.52,2.4-49.62,1.26-50.88-0.05c-0.92-0.95-1.93-3.87-1.33-7.86c0.48-3.17,1.99-7.02,5.42-11.11c1.8-2.15,4.1-3.74,6.59-4.89   c8.22-3.75,18.71-2.9,21.78-2.73c1.34,0.07,2.08-0.22,2.47-0.64c0.38-0.41,0.44-0.94,0.39-1.38c-0.04-0.38,0.31-0.67,0.69-0.58   c7.5,1.92,14.5,2.18,20.1,1.83c0,0,0.02,0,0.04,0c5.55-0.34,9.71-1.29,11.63-1.79c0.61-0.17,1.2,0.26,1.25,0.9l1.13,16.42   l0.51,7.45C713.65,937.76,713.22,938.37,712.55,938.53z"></path>
  <path fill="#f1f2f2" d="M680.58,920.55c-2.33,0.08-18.94-0.01-22.95-0.05c-4.01-0.04-4.03-2.86-4.03-2.86c0.01-0.01,0-0.02,0.01-0.03   c8.22-3.75,18.71-2.9,21.78-2.73c1.34,0.07,2.08-0.22,2.47-0.64C681.45,917.44,682.39,920.49,680.58,920.55z"></path>
  <path fill="none" stroke="#231f20" stroke-miterlimit="10" stroke-width=".25" d="M667.96,909.5c3.12,6.35,13.05,16.8,16.38,13.85c3.2-2.83-14.07-6.63-20.63-14.64   C661.33,905.81,664.82,903.11,667.96,909.5z"></path>
  <path fill="none" stroke="#231f20" stroke-miterlimit="10" stroke-width=".25" d="M663.4,913.94c0,0,4.14-1.17,7.97,0.82c0,0,4.37,6.02,3.84,14.75"></path>
  <path fill="#f7941d" d="M712.55,938.53c-25.52,6.02-67.99,4.62-69.61,2.94c-0.92-0.95-1.93-3.87-1.33-7.86   c23.32,4.84,60.32-1.77,71.5-3.98l0.51,7.45C713.65,937.76,713.22,938.37,712.55,938.53z"></path>
  <path fill="#231f20" d="M712.55,938.53c-5.6,1.31-12.02,2.29-18.66,2.97c10.33-2.19,16.25-12.18,14.62-19.98   c-1.55-7.43-8.77-7.44-9.41-7.42c5.55-0.34,9.71-1.29,11.63-1.79c0.61-0.17,1.2,0.26,1.25,0.9l1.13,16.42l0.51,7.45   C713.65,937.76,713.22,938.37,712.55,938.53z" opacity=".1"></path>
  <circle cx="700.4" cy="453.12" r="1.38" fill="#231f20"></circle>
  <circle cx="708.81" cy="453.12" r="1.38" fill="#231f20"></circle>
  <path fill="none" stroke="#231f20" stroke-linecap="round" stroke-miterlimit="10" stroke-width=".25" d="M703.54 454.13c0 0-2.04 3.99-1.76 4.59.27.6 3.18 0 3.18 0M703.99 462.93c0 0 3.77.71 5.89-2.75"></path>
  <circle cx="832.72" cy="820.3" r="16.52" fill="#fbb040"></circle>
  <path fill="#e2e2e2" d="M1043.87,818.45H881.29h-15.43l10.45,10.45v17.62c0,2.75,2.23,4.98,4.98,4.98h162.59  c2.75,0,4.98-2.23,4.98-4.98v-23.09C1048.85,820.68,1046.62,818.45,1043.87,818.45z"></path>
  <circle cx="1033.8" cy="726.93" r="16.52" fill="#fbb040"></circle>
  <path fill="#e2e2e2" d="M822.64,725.07h162.59h15.43l-10.45,10.45v32.28c0,2.75-2.23,4.98-4.98,4.98H822.64  c-2.75,0-4.98-2.23-4.98-4.98v-37.76C817.66,727.3,819.89,725.07,822.64,725.07z"></path>
  <circle cx="832.72" cy="621.81" r="16.52" fill="#fbb040"></circle>
  <path fill="#e2e2e2" d="M1043.87,621.42H881.29h-15.43l10.45,10.45v46.95c0,2.75,2.23,4.98,4.98,4.98h162.59  c2.75,0,4.98-2.23,4.98-4.98V626.4C1048.85,623.65,1046.62,621.42,1043.87,621.42z"></path>
  <line x1="867.33" x2="969.07" y1="609.58" y2="609.58" fill="none" stroke="#d1d3d4" stroke-linecap="round" stroke-miterlimit="10" stroke-width="3"></line>
  <circle cx="832.72" cy="449.33" r="16.52" fill="#fbb040"></circle>
  <circle cx="834.11" cy="363.42" r="8.98" fill="#fbb040"></circle>
  <path fill="#e2e2e2" d="M1043.87,448.94H881.29h-15.43l10.45,10.45v117.36c0,2.75,2.23,4.98,4.98,4.98h162.59  c2.75,0,4.98-2.23,4.98-4.98V453.92C1048.85,451.17,1046.62,448.94,1043.87,448.94z"></path>
  <line x1="867.33" x2="969.07" y1="437.09" y2="437.09" fill="none" stroke="#d1d3d4" stroke-linecap="round" stroke-miterlimit="10" stroke-width="3"></line>
  <line x1="852.73" x2="894.78" y1="358.28" y2="358.28" fill="none" stroke="#d1d3d4" stroke-linecap="round" stroke-miterlimit="10" stroke-width="3"></line>
  <line x1="851.26" x2="893.32" y1="365.81" y2="365.81" fill="none" stroke="#d1d3d4" stroke-linecap="round" stroke-miterlimit="10"></line>
  <line x1="897.5" x2="999.24" y1="714.01" y2="714.01" fill="none" stroke="#d1d3d4" stroke-linecap="round" stroke-miterlimit="10" stroke-width="3"></line>
  <line x1="869" x2="970.74" y1="807.42" y2="807.42" fill="none" stroke="#d1d3d4" stroke-linecap="round" stroke-miterlimit="10" stroke-width="3"></line>
  <line x1="890.9" x2="1032.33" y1="633.28" y2="633.28" fill="none" stroke="#fff" stroke-linecap="round" stroke-miterlimit="10" stroke-width="2"></line>
  <line x1="890.9" x2="1032.33" y1="645.26" y2="645.26" fill="none" stroke="#fff" stroke-linecap="round" stroke-miterlimit="10" stroke-width="2"></line>
  <line x1="890.9" x2="979.23" y1="657.24" y2="657.24" fill="none" stroke="#fff" stroke-linecap="round" stroke-miterlimit="10" stroke-width="2"></line>
  <line x1="990.14" x2="1032.33" y1="657.24" y2="657.24" fill="none" stroke="#fff" stroke-linecap="round" stroke-miterlimit="10" stroke-width="2"></line>
  <line x1="890.9" x2="924.54" y1="669.21" y2="669.21" fill="none" stroke="#fff" stroke-linecap="round" stroke-miterlimit="10" stroke-width="2"></line>
  <line x1="936.8" x2="994.32" y1="669.21" y2="669.21" fill="none" stroke="#fff" stroke-linecap="round" stroke-miterlimit="10" stroke-width="2"></line>
  <line x1="828.41" x2="978.34" y1="736.15" y2="736.15" fill="none" stroke="#fff" stroke-linecap="round" stroke-miterlimit="10" stroke-width="2"></line>
  <line x1="828.41" x2="863.3" y1="748.93" y2="748.93" fill="none" stroke="#fff" stroke-linecap="round" stroke-miterlimit="10" stroke-width="2"></line>
  <line x1="870.47" x2="978.34" y1="748.93" y2="748.93" fill="none" stroke="#fff" stroke-linecap="round" stroke-miterlimit="10" stroke-width="2"></line>
  <line x1="828.41" x2="978.34" y1="761.61" y2="761.61" fill="none" stroke="#fff" stroke-linecap="round" stroke-miterlimit="10" stroke-width="2"></line>
  <line x1="888.08" x2="950.31" y1="828.72" y2="828.72" fill="none" stroke="#fff" stroke-linecap="round" stroke-miterlimit="10" stroke-width="2"></line>
  <line x1="960.68" x2="1036.12" y1="828.72" y2="828.72" fill="none" stroke="#fff" stroke-linecap="round" stroke-miterlimit="10" stroke-width="2"></line>
  <line x1="888.08" x2="931.14" y1="839.62" y2="839.62" fill="none" stroke="#fff" stroke-linecap="round" stroke-miterlimit="10" stroke-width="2"></line>
  <path fill="#ffd8a4" d="M983.37,339.32h-101.7c-3.34,0-6.04-2.71-6.04-6.04v-13.69c0-3.34,2.71-6.04,6.04-6.04h101.7  c3.34,0,6.04,2.71,6.04,6.04v13.69C989.42,336.61,986.71,339.32,983.37,339.32z"></path>
  <path fill="#fff" d="M1040.35,576.02h-154.2c-1.69,0-3.05-1.37-3.05-3.05V458.99c0-1.69,1.37-3.05,3.05-3.05h154.2  c1.69,0,3.05,1.37,3.05,3.05v113.98C1043.4,574.65,1042.04,576.02,1040.35,576.02z"></path>
  <path fill="#fbb040" d="M1065.4,337.46h-16.74c-0.98,0-1.77-0.79-1.77-1.77v-4.01c0-0.98,0.79-1.77,1.77-1.77h16.74  c0.98,0,1.77,0.79,1.77,1.77v4.01C1067.17,336.67,1066.38,337.46,1065.4,337.46z"></path>
  <text font-family="Poppins-Thin" font-size="7.769" transform="translate(797.083 337.462)">09.30</text>
  <g>
    <line x1="804.48" x2="811.95" y1="362.82" y2="362.82" fill="none" stroke="#231f20" stroke-linecap="round" stroke-linejoin="round" stroke-miterlimit="10" stroke-width=".75"></line>
    <polyline fill="none" stroke="#231f20" stroke-linecap="round" stroke-linejoin="round" stroke-miterlimit="10" stroke-width=".75" points="808.84 358.77 803.24 362.82 808.84 367.28"></polyline>
  </g>
  <path fill="#fbb040" d="M1046.85,370.06c-0.92-0.02-1.57-0.19-2.2-0.44c-1.5-0.58-2.8-1.47-4.01-2.51c-1.37-1.18-2.56-2.52-3.51-4.06  c-0.55-0.91-1.01-1.86-1.24-2.9c-0.1-0.47-0.16-0.94-0.04-1.41c0.05-0.18,0.1-0.38,0.22-0.5c0.34-0.38,0.7-0.75,1.09-1.08  c0.59-0.48,1.15-0.49,1.76-0.01c0.62,0.49,1.08,1.12,1.38,1.86c0.22,0.54,0.09,1.02-0.3,1.44c-0.15,0.17-0.3,0.34-0.47,0.49  c-0.24,0.22-0.31,0.48-0.19,0.77c0.12,0.29,0.25,0.58,0.43,0.84c0.46,0.69,1.03,1.29,1.62,1.88c0.61,0.61,1.25,1.2,1.97,1.69  c0.3,0.2,0.61,0.38,0.97,0.45c0.24,0.04,0.43-0.02,0.6-0.19c0.16-0.17,0.33-0.33,0.5-0.49c0.44-0.42,0.95-0.55,1.52-0.3  c0.75,0.33,1.4,0.79,1.89,1.46c0.35,0.47,0.35,1,0.03,1.49c-0.13,0.2-0.29,0.38-0.45,0.56c-0.14,0.16-0.31,0.29-0.45,0.45  C1047.63,369.94,1047.15,370.08,1046.85,370.06z"></path>
  <g>
    <path fill="#fbb040" d="M1005.21 356.79c1.89 0 3.77 0 5.66 0 1.19 0 1.9.71 1.9 1.9 0 3.16 0 6.33 0 9.49 0 1.16-.72 1.88-1.89 1.88-3.8 0-7.59 0-11.39 0-1.16 0-1.89-.72-1.89-1.89 0-3.16 0-6.33 0-9.49 0-1.19.72-1.89 1.91-1.89C1001.41 356.79 1003.31 356.79 1005.21 356.79zM1018.79 363.42c0 1.36-.01 2.71 0 4.07 0 .42-.1.76-.49.97-.4.21-.75.08-1.09-.18-.94-.71-1.88-1.41-2.83-2.1-.33-.24-.48-.53-.48-.94.02-1.22.01-2.44 0-3.66 0-.39.14-.66.45-.89.98-.71 1.94-1.44 2.91-2.16.31-.24.65-.33 1.01-.15.38.18.52.5.52.91C1018.79 360.67 1018.79 362.05 1018.79 363.42z"></path>
  </g>
  <path fill="#f1f2f2" d="M662.67 463.96h-231c-5.86 0-10.61-4.75-10.61-10.61V280.89c0-5.86 4.75-10.61 10.61-10.61h231c5.86 0 10.61 4.75 10.61 10.61v172.46C673.28 459.21 668.53 463.96 662.67 463.96zM1432.76 445.68h-231c-5.86 0-10.61-4.75-10.61-10.61V269.94c0-5.86 4.75-10.61 10.61-10.61h231c5.86 0 10.61 4.75 10.61 10.61v165.13C1443.37 440.93 1438.62 445.68 1432.76 445.68z"></path>
  <path fill="#fbb040" d="M584.57,329.4c0,12.26-5.9,23.15-15.02,29.97c-6.25,4.69-13.98,7.44-22.39,7.44  c-13.3,0-24.97-6.95-31.59-17.41c-3.69-5.77-5.8-12.64-5.8-20c0-11.25,4.95-21.31,12.8-28.16c6.57-5.75,15.18-9.23,24.59-9.23  c9.08,0,17.39,3.23,23.87,8.59C579.31,307.47,584.57,317.81,584.57,329.4z"></path>
  <path fill="#00aeef" d="M1354.66,319.57c0,5.15-1.03,10.05-2.92,14.51c0,0.02,0,0.02,0,0.02c-0.03,0.05-0.05,0.1-0.07,0.15  c-0.49,1.13-1.02,2.25-1.61,3.31c-1.03,1.89-2.23,3.67-3.59,5.34c-5.49,6.9-13.38,11.8-22.41,13.46c-1.85,0.34-3.75,0.56-5.69,0.59  c-0.36,0.03-0.74,0.03-1.11,0.03c-11.84,0-22.39-5.49-29.23-14.08c-0.98-1.21-1.89-2.49-2.69-3.84c-0.31-0.49-0.61-1-0.89-1.51  c-0.02-0.03-0.03-0.07-0.05-0.08c-2.9-5.31-4.56-11.43-4.56-17.9c0-11.57,5.26-21.94,13.53-28.79c6.49-5.38,14.8-8.61,23.89-8.61  c7.92,0,15.26,2.46,21.3,6.66C1348.3,295.58,1354.66,306.83,1354.66,319.57z"></path>
  <line x1="496.3" x2="598.04" y1="390.96" y2="390.96" fill="none" stroke="#d1d3d4" stroke-linecap="round" stroke-miterlimit="10" stroke-width="6"></line>
  <line x1="512.23" x2="582.11" y1="405.52" y2="405.52" fill="none" stroke="#d1d3d4" stroke-linecap="round" stroke-miterlimit="10" stroke-width="3"></line>
  <line x1="1266.39" x2="1368.13" y1="381.12" y2="381.12" fill="none" stroke="#d1d3d4" stroke-linecap="round" stroke-miterlimit="10" stroke-width="6"></line>
  <line x1="1282.32" x2="1352.2" y1="395.69" y2="395.69" fill="none" stroke="#d1d3d4" stroke-linecap="round" stroke-miterlimit="10" stroke-width="3"></line>
  <g>
    <path fill="#00aeef" d="M570.66 431.18c-.92-.02-1.57-.19-2.2-.44-1.5-.58-2.8-1.47-4.01-2.51-1.37-1.18-2.56-2.52-3.51-4.06-.55-.91-1.01-1.86-1.24-2.9-.1-.47-.16-.94-.04-1.41.05-.18.1-.38.22-.5.34-.38.7-.75 1.09-1.08.59-.48 1.15-.49 1.76-.01.62.49 1.08 1.12 1.38 1.86.22.54.09 1.02-.3 1.44-.15.17-.3.34-.47.49-.24.22-.31.48-.19.77.12.29.25.58.43.84.46.69 1.03 1.29 1.62 1.88.61.61 1.25 1.2 1.97 1.69.3.2.61.38.97.45.24.04.43-.02.6-.19.16-.17.33-.33.5-.49.44-.42.95-.55 1.52-.3.75.33 1.4.79 1.89 1.46.35.47.35 1 .03 1.49-.13.2-.29.38-.45.56-.14.16-.31.29-.45.45C571.44 431.06 570.96 431.19 570.66 431.18zM529.02 417.91c1.89 0 3.77 0 5.66 0 1.19 0 1.9.71 1.9 1.9 0 3.16 0 6.33 0 9.49 0 1.16-.72 1.88-1.89 1.88-3.8 0-7.59 0-11.39 0-1.16 0-1.89-.72-1.89-1.89 0-3.16 0-6.33 0-9.49 0-1.19.72-1.89 1.91-1.89C525.22 417.9 527.12 417.91 529.02 417.91zM542.6 424.54c0 1.36-.01 2.71 0 4.07 0 .42-.1.76-.49.97-.4.21-.75.08-1.09-.18-.94-.71-1.88-1.41-2.83-2.1-.33-.24-.48-.53-.48-.94.02-1.22.01-2.44 0-3.66 0-.39.14-.66.45-.89.98-.71 1.94-1.44 2.91-2.16.31-.24.65-.33 1.01-.15.38.18.52.5.52.91C542.6 421.78 542.6 423.16 542.6 424.54z"></path>
  </g>
  <g>
    <path fill="#00aeef" d="M1340.75 421.34c-.92-.02-1.57-.19-2.2-.44-1.5-.58-2.8-1.47-4.01-2.51-1.37-1.18-2.56-2.52-3.51-4.06-.55-.91-1.01-1.86-1.24-2.9-.1-.47-.16-.94-.04-1.41.05-.18.1-.38.22-.5.34-.38.7-.75 1.09-1.08.59-.48 1.15-.49 1.76-.01.62.49 1.08 1.12 1.38 1.86.22.54.09 1.02-.3 1.44-.15.17-.3.34-.47.49-.24.22-.31.48-.19.77.12.29.25.58.43.84.46.69 1.03 1.29 1.62 1.88.61.61 1.25 1.2 1.97 1.69.3.2.61.38.97.45.24.04.43-.02.6-.19.16-.17.33-.33.5-.49.44-.42.95-.55 1.52-.3.75.33 1.4.79 1.89 1.45.35.47.35 1 .03 1.49-.13.2-.29.38-.45.56-.14.16-.31.29-.45.45C1341.53 421.22 1341.05 421.36 1340.75 421.34zM1299.1 408.07c1.89 0 3.77 0 5.66 0 1.19 0 1.9.7 1.9 1.9 0 3.16 0 6.33 0 9.49 0 1.16-.72 1.88-1.89 1.88-3.8 0-7.59 0-11.39 0-1.16 0-1.89-.72-1.89-1.89 0-3.16 0-6.33 0-9.49 0-1.19.72-1.89 1.91-1.89C1295.31 408.07 1297.21 408.07 1299.1 408.07zM1312.69 414.7c0 1.36-.01 2.71 0 4.07 0 .42-.1.76-.49.97-.4.21-.75.08-1.09-.18-.94-.71-1.88-1.41-2.83-2.1-.33-.24-.48-.53-.48-.94.02-1.22.01-2.44 0-3.66 0-.39.14-.66.45-.89.98-.71 1.94-1.44 2.91-2.16.31-.24.65-.33 1.01-.15.38.18.52.5.52.91C1312.68 411.95 1312.69 413.33 1312.69 414.7z"></path>
  </g>
  <polygon fill="#f1f2f2" points="673.28 438.19 673.28 477.04 637.38 441.14"></polygon>
  <polygon fill="#f1f2f2" points="1191.21 421.62 1191.21 460.47 1227.11 424.57"></polygon>
  <g>
    <path fill="#00aeef" d="M567.13,356.75c0.79,0.84,1.61,1.72,2.43,2.62c-6.25,4.69-13.98,7.44-22.39,7.44     c-13.3,0-24.97-6.95-31.59-17.41c5.52-2.18,10.31-3.72,13.77-4.72c1.66-0.49,2.98-0.87,3.97-1.11c0.59-0.16,1.05-0.28,1.36-0.34     c0.02,0,0.02,0,0.02,0c0.02,0.02,0.02,0,0.02,0c0.02,0,0.02,0,0.02,0c0.1-0.03,0.18-0.05,0.25-0.05c0.13-0.03,0.2-0.05,0.2-0.05     l5.48,0.51c0.02,0,0.02,0,0.02,0l12.34,1.2l2.21,0.2c0,0,0,0,0,0.02c0,0,0,0,0.02,0.02c0.08,0.07,0.31,0.28,0.7,0.62     c0.03,0.02,0.05,0.03,0.08,0.08l0.34,0.31c0.39,0.36,0.85,0.79,1.39,1.3c0.02,0,0.02,0,0.02,0c0.08,0.08,0.16,0.15,0.25,0.25     c0.1,0.1,0.2,0.2,0.31,0.3c0.61,0.56,1.26,1.21,2,1.92h0.02l0.02,0.03c0.08,0.07,0.26,0.25,0.52,0.52h0.02     c0.02,0.02,0.02,0.02,0.02,0.03c0.02,0.02,0.03,0.02,0.03,0.03c0.08,0.1,0.18,0.21,0.31,0.34c0.03,0.03,0.07,0.08,0.11,0.11     c0.3,0.28,0.62,0.59,0.97,0.92c0.48,0.51,0.98,1,1.52,1.52C564.88,354.4,565.98,355.52,567.13,356.75z"></path>
    <path fill="#bbefff" d="M529.35,344.68c7.59,6.21,34.56,21.29,35.63,14.3c0.59-3.87-3.1-7.47-4.03-8.53     c-0.02-0.02-0.04-0.04-0.06-0.06c-0.35-0.39-0.56-0.56-0.56-0.56c-0.91-0.87-1.7-1.64-2.4-2.28c-0.02-0.02-0.02-0.02-0.02-0.02     c-1.68-1.61-2.69-2.5-2.69-2.5l-20.07-1.92c0,0-0.17,0.04-0.48,0.12C533.84,343.42,531.98,343.89,529.35,344.68z"></path>
    <path fill="#fff" d="M556.02,345.77l4.88,4.63l-0.56-0.56C558.38,347.93,556.87,346.54,556.02,345.77z"></path>
    <path fill="#ffc7ab" d="M534.48,343.1c1.26,0.79,2.44,1.53,3.54,2.21c25.78,15.64,17.59,0.43,17.2-0.25c0-0.02,0-0.02,0-0.02     c-3.99-4.61-2.81-16.87-2.81-16.87s-14.3-11.8-14.34-3.99c-0.02,0.52,0.06,1.16,0.19,1.9     C540.48,337.46,534.48,343.1,534.48,343.1z"></path>
    <circle cx="527.63" cy="284.6" r="10.99" fill="#414042"></circle>
    <path fill="#eaa98f" d="M534.48,343.1c30.03,19.2,21.15,2.67,20.75,1.95C555.22,345.42,555.01,354.59,534.48,343.1z"></path>
    <path fill="#f4bea6" d="M534.48,343.1c1.26,0.79,2.44,1.53,3.54,2.21c0.12-0.04,0.21-0.1,0.33-0.15     c10.55-5.86,10.18-18.31,10.18-18.31l-5.59-3.93l-4.86,1.26c-0.02,0.52,0.06,1.16,0.19,1.9     C540.48,337.46,534.48,343.1,534.48,343.1z"></path>
    <path fill="#414042" d="M562.03,321.4c5.82-3.08,12.35-14.99,7.61-25.5c-4.74-10.51-26.44-20.6-40.38-5     c-13.95,15.59-8.49,27.88,8.08,36.37C553.91,335.75,562.03,321.4,562.03,321.4z"></path>
    <path fill="#ffc7ab" d="M564.47,306.4c0,0,3.75,15.72-7.39,23.55c-11.14,7.82-23.17-2.63-22.75-8.84c0,0-4.78-1.57-3.65-10.17     c1.34-10.21,6.06-3,6.06-3s11.25,8.53,20.05-5.08C556.78,302.85,560.45,309.48,564.47,306.4z"></path>
    <circle cx="559.62" cy="315.54" r="1.81" fill="#231f20"></circle>
    <circle cx="548.53" cy="315.54" r="1.81" fill="#231f20"></circle>
    <path fill="none" stroke="#231f20" stroke-linecap="round" stroke-miterlimit="10" stroke-width=".25" d="M555.48 316.86c0 0 2.69 5.26 2.33 6.05s-4.19 0-4.19 0M554.88 328.47c0 0-4.98.93-7.78-3.63"></path>
  </g>
  <g>
    <path fill="#fbb040" d="M1351.74,334.07c0,0.02,0,0.02,0,0.02c-0.03,0.05-0.05,0.1-0.07,0.15c-0.49,1.13-1.02,2.25-1.61,3.31     c-1.03,1.89-2.23,3.67-3.59,5.34c-5.49,6.9-13.38,11.8-22.41,13.46c-1.85,0.34-3.75,0.56-5.69,0.59     c-0.36,0.03-0.74,0.03-1.11,0.03c-11.84,0-22.39-5.49-29.23-14.08c-0.98-1.21-1.89-2.49-2.69-3.84c-0.31-0.49-0.61-1-0.89-1.51     c-0.02-0.03-0.03-0.07-0.05-0.08c0.33-0.08,0.64-0.21,0.93-0.34c2.18-0.72,4.15-1.33,6.02-1.89c0.3-0.13,0.62-0.18,0.92-0.3     c1.05-0.3,2.05-0.57,2.98-0.84c0.56-0.15,1.08-0.3,1.59-0.43c0.48-0.11,0.95-0.23,1.38-0.34c0.26-0.07,0.51-0.13,0.75-0.2     c0.64-0.16,1.23-0.31,1.74-0.43c0.16-0.03,0.33-0.07,0.48-0.1c0.15-0.03,0.3-0.07,0.44-0.1h0.02c0.16-0.05,0.31-0.08,0.46-0.11     c0.13-0.03,0.26-0.05,0.38-0.07c0.48-0.11,0.7-0.15,0.7-0.15l15.18-0.69l1.23-0.07l4.46-0.21l4.97-0.21l1.97-0.08     c0.11,0,0.25,0.02,0.36,0.02c0.13,0,0.23,0.02,0.34,0.02c0.02,0,0.05,0,0.07,0.02c0.05,0,0.1,0,0.16,0.02     c0.15,0,0.28,0,0.43,0.02h0.3c0.11,0.02,0.23,0.02,0.34,0.03c0.21,0.02,0.41,0.03,0.62,0.05c0.21,0.02,0.43,0.03,0.62,0.05     c0.16,0,0.31,0.02,0.48,0.03c0.46,0.03,0.92,0.07,1.38,0.11c0.11,0,0.23,0.02,0.36,0.02c0.25,0.03,0.51,0.05,0.75,0.08     c0.36,0.03,0.72,0.08,1.08,0.11c3.87,0.48,7.61,1.15,11.21,2c0.07,0,0.11,0.02,0.16,0.05     C1350.37,333.71,1351.05,333.89,1351.74,334.07z"></path>
    <path fill="#f98800" d="M1324.07 331.22v25.13c-1.85.34-3.75.56-5.69.59V331.5l1.23-.07L1324.07 331.22zM1285.35 337.12v1.93c-.31-.49-.61-1-.89-1.51-.02-.03-.03-.07-.05-.08C1284.74 337.39 1285.05 337.26 1285.35 337.12z"></path>
    <path fill="#f98800" d="M1350.07,337.55c-1.03,1.89-2.23,3.67-3.59,5.34h-58.44c-0.98-1.21-1.89-2.49-2.69-3.84      c-0.31-0.49-0.61-1-0.89-1.51H1350.07z"></path>
    <path fill="#fff" d="M1350.07,333.66c0.56,0.13,1.11,0.28,1.67,0.43c-0.03,0.05-0.05,0.1-0.07,0.15     C1350.99,333.98,1350.45,333.8,1350.07,333.66z" opacity=".5"></path>
    <path fill="#f9cb93" d="M1292.28,334.95c5.15,6.73,15.85,14.84,28.62,11.57c12.77-3.25,17.41-15.01,17.41-15.01     c-0.72-0.1-1.46-0.17-2.2-0.23c-0.61-0.06-1.24-0.11-1.86-0.15c-0.76-0.06-1.52-0.11-2.28-0.15c-0.3-0.02-0.63-0.04-0.95-0.06     l-27.82,1.25c0,0-0.55,0.11-1.54,0.32c-1.1,0.25-2.74,0.65-4.79,1.18c-0.51,0.13-1.05,0.28-1.6,0.44     C1294.33,334.36,1293.33,334.65,1292.28,334.95z"></path>
    <path fill="#f98800" d="M1301.65,332.5c1.96,3.61,7.3,9.24,17.16,7.62c9.88-1.63,13.15-9.14,13.15-9.14     c-0.3-0.02-0.63-0.04-0.95-0.06l-27.82,1.25C1303.19,332.18,1302.64,332.29,1301.65,332.5z" opacity=".3"></path>
    <path fill="#ffc7ab" d="M1303.19,332.18c13.57,14.94,27.82-1.25,27.82-1.25c-4.52-3.4-5.76-8.55-5.85-12.88     c-0.13-4.41,0.93-7.98,0.93-7.98l-22.14-2.41C1307.58,322.01,1303.19,332.18,1303.19,332.18z"></path>
    <path fill="#fcb89a" d="M1303.19,332.18c14.63-1.56,20.03-8.46,21.97-14.14c-0.13-4.41,0.93-7.98,0.93-7.98l-22.14-2.41     C1307.58,322.01,1303.19,332.18,1303.19,332.18z"></path>
    <path fill="#414042" d="M1298.97,298.79c0,0-5.4-0.84-3.54-6.91c0,0-4.55-0.84-2.7-6.07s6.24-3.71,6.24-3.71s-4.04-3.04-1.18-6.91     s7.25-1.35,7.25-1.35s-3.71-6.24,1.52-7.93c5.23-1.69,9.11,1.35,8.1,6.24c0,0,0.34-8.02,8.26-6.71c7.93,1.31,4.55,8.06,4.55,8.06     s3.88-2.19,7.08,0.17c3.2,2.36,0.67,5.9,0.67,5.9s4.05-1.8,6.41,2.48c2.36,4.27-1.86,6.8-4.89,7.31c0,0,5.23,1.35,3.88,6.91     s-5.57,4.55-5.57,4.55s1.52,7.12-8.43,4.06C1316.68,301.82,1298.97,298.79,1298.97,298.79z"></path>
    <path fill="#ffc7ab" d="M1298.76,290.95c0,0-4.51,23.02,5.95,28.76c10.46,5.73,20.91-4.05,21.93-11.97c0,0,2.7,2.53,5.73-3.37     c3.04-5.9,1.46-18.38-7.42-7.42c0,0-7.51,2.19-5.82-7.42c0,0-1.01,4.89-5.23,4.3c-3.84-0.54-4.3-4.13-4.3-4.13     s-0.7,4.16-3.91,4.87C1303.86,294.95,1300.58,295.08,1298.76,290.95z"></path>
    <path fill="#414042" d="M1320.9,294.74c0,0,1.26,4.21,0.76,10.14h1.77l3.04-16.55L1320.9,294.74z"></path>
    <circle cx="1310.65" cy="300.96" r="1.62" fill="#231f20"></circle>
    <circle cx="1301.11" cy="300.96" r="1.62" fill="#231f20"></circle>
    <path fill="none" stroke="#231f20" stroke-linecap="round" stroke-miterlimit="10" stroke-width=".25" d="M1304.18 303.08c0 0-2.41 4.12-3.07 5.34-.67 1.22 3.38 1.6 4.45 1.6M1312.28 312.63c0 0-1.83 3.28-6.72 2.06"></path>
  </g>
  <g>
    <circle cx="439.83" cy="289.18" r="1.41" fill="#fbb040"></circle>
    <circle cx="439.83" cy="294.05" r="1.41" fill="#fbb040"></circle>
    <circle cx="439.83" cy="298.92" r="1.41" fill="#fbb040"></circle>
  </g>
  <circle cx="1426.21" cy="279.23" r="1.41" fill="#fbb040"></circle>
  <circle cx="1426.21" cy="284.1" r="1.41" fill="#fbb040"></circle>
  <circle cx="1426.21" cy="288.97" r="1.41" fill="#fbb040"></circle>
  <circle cx="523.7" cy="360" r="6.81" fill="#fbb040"></circle>
  <path fill="#fff" d="M522.05,362.05L522.05,362.05c0-0.18,0.15-0.33,0.33-0.33h0.97v-1.03c-0.62-0.13-1.11-0.47-1.42-1.04  c-0.22-0.41-0.29-0.85-0.2-1.31c0.19-0.96,1.02-1.63,1.99-1.62c0.96,0.01,1.79,0.71,1.95,1.65c0.15,0.89-0.33,2.04-1.63,2.33v1.01  h0.97c0.18,0,0.33,0.15,0.33,0.33l0,0c0,0.18-0.15,0.33-0.33,0.33h-0.97v1c0,0.18-0.15,0.33-0.33,0.33l0,0  c-0.18,0-0.33-0.15-0.33-0.33v-0.98h-0.99C522.2,362.38,522.05,362.23,522.05,362.05z M523.7,360.04c0.74,0,1.34-0.59,1.34-1.32  c0-0.74-0.59-1.34-1.32-1.35c-0.74-0.01-1.35,0.59-1.35,1.32C522.37,359.44,522.95,360.04,523.7,360.04z"></path>
  <circle cx="1343.02" cy="349.59" r="6.81" fill="#00aeef"></circle>
  <path fill="#fff" d="M1343.92,348.18c0.39-0.39,0.78-0.77,1.18-1.16c-0.15,0-0.29,0-0.43,0c-0.23,0-0.37-0.13-0.37-0.31  c0-0.19,0.14-0.32,0.37-0.32c0.4,0,0.8,0,1.19,0c0.24,0,0.35,0.12,0.35,0.36c0,0.4,0,0.8,0,1.19c0,0.22-0.13,0.37-0.32,0.36  c-0.18,0-0.3-0.14-0.31-0.36c0-0.14,0-0.27-0.01-0.41c0,0-0.01-0.01,0,0.01c-0.38,0.38-0.76,0.76-1.15,1.15  c0.92,1.27,0.48,2.85-0.55,3.6c-1.03,0.76-2.5,0.62-3.38-0.32c-0.88-0.93-0.91-2.42-0.09-3.4  C1341.25,347.59,1342.76,347.32,1343.92,348.18z M1342.39,348.31c-1.07,0-1.93,0.85-1.94,1.92c-0.01,1.05,0.86,1.92,1.92,1.93  c1.05,0.01,1.93-0.86,1.93-1.91C1344.3,349.17,1343.45,348.31,1342.39,348.31z"></path>
  <g>
    <path fill="#c6ecf7" d="M787.73,282.77h-170.4c-3.86,0-6.98-3.13-6.98-6.98v-60.01c0-3.86,3.13-6.98,6.98-6.98h170.4     c3.86,0,6.98,3.13,6.98,6.98v60.01C794.71,279.64,791.59,282.77,787.73,282.77z"></path>
    <polygon fill="#c6ecf7" points="610.35 271.32 610.35 300.61 649.35 261.61"></polygon>
  </g>
  <g>
    <path fill="#c6ecf7" d="M374.31,449.46h121.22c3.86,0,6.98,3.13,6.98,6.98v105.92c0,3.86-3.13,6.98-6.98,6.98H374.31     c-3.86,0-6.98-3.13-6.98-6.98V456.44C367.33,452.58,370.45,449.46,374.31,449.46z"></path>
    <polygon fill="#c6ecf7" points="502.51 460.9 502.51 431.62 463.51 470.62"></polygon>
  </g>
  <g>
    <path fill="#c6ecf7" d="M1070.16,276.21h162.2c3.86,0,6.98-3.13,6.98-6.98v-60.01c0-3.86-3.13-6.98-6.98-6.98h-162.2     c-3.86,0-6.98,3.13-6.98,6.98v60.01C1063.17,273.08,1066.3,276.21,1070.16,276.21z"></path>
    <polygon fill="#c6ecf7" points="1239.34 264.76 1239.34 294.05 1200.34 255.05"></polygon>
  </g>
  <path fill="#fff" d="M492.75,463.7v89.9c0,4.31-3.49,7.82-7.82,7.82H383.95c-4.31,0-7.82-3.51-7.82-7.82v-89.9  c0-4.31,3.51-7.82,7.82-7.82h100.99C489.26,455.88,492.75,459.39,492.75,463.7z"></path>
  <path fill="#bfe5ba" d="M492.75,540.9v12.71c0,4.31-3.49,7.82-7.82,7.82H383.95c-4.31,0-7.82-3.51-7.82-7.82v-16.33  c16.9-10.67,39.67-24.84,46.38-27.89c4.23-1.92,17.41,3.38,32.08,10.66C467.96,526.67,482.57,534.95,492.75,540.9z"></path>
  <path fill="#bfe5ba" d="M492.75,516.57v37.03c0,4.31-3.49,7.82-7.82,7.82h-36.79c-13.61-6.15-20.72-14.84-10.36-27.05  c0,0,8.21-7.52,16.8-14.33c6.64-5.25,13.48-10.07,16.92-10.66C474.29,508.92,482.85,512.16,492.75,516.57z"></path>
  <circle cx="452.53" cy="482.47" r="14.49" fill="#fff9ae"></circle>
  <g>
    <path fill="#c6ecf7" d="M1518.73,472.11h-170.4c-3.86,0-6.98,3.13-6.98,6.98v74.77c0,3.86,3.13,6.98,6.98,6.98h170.4      c3.86,0,6.98-3.13,6.98-6.98v-74.77C1525.71,475.23,1522.59,472.11,1518.73,472.11z"></path>
    <polygon fill="#c6ecf7" points="1341.35 483.55 1341.35 454.27 1380.35 493.27"></polygon>
    <path fill="#fff" d="M1428.61,484.8v63.9c0,0.36-0.03,0.72-0.1,1.07c-0.51,2.97-3.08,5.23-6.2,5.23h-68.03   c-0.28,0-0.54-0.02-0.8-0.07c-3.1-0.38-5.49-3.03-5.49-6.23v-63.9c0-3.48,2.82-6.3,6.3-6.3h68.03   C1425.79,478.5,1428.61,481.32,1428.61,484.8z"></path>
    <path fill="#bfe5ba" d="M1428.52,549.77c-0.51,2.97-3.08,5.23-6.2,5.23h-68.03c-0.28,0-0.54-0.02-0.8-0.07   c-3.1-0.38-5.49-3.03-5.49-6.23v-9.84c12.16-7.26,23.85-13.74,27.2-13.92c3.08-0.15,15.12,5.34,28.41,11.97   C1412.07,541.13,1421.04,545.82,1428.52,549.77z"></path>
    <path fill="#bfe5ba" d="M1428.61,535.95v13.87c-0.03-0.02-0.07-0.03-0.1-0.05c-0.51,2.97-3.08,5.23-6.2,5.23h-49.17   c9.59-5.98,21.48-13.23,30.44-18.08c5.89-3.16,10.49-5.31,12.39-5.41C1417.74,531.42,1422.43,533.18,1428.61,535.95z"></path>
    <circle cx="1400.88" cy="509.89" r="8.9" fill="#fff9ae"></circle>
    <path fill="#fff" d="M1517.14,484.8v63.9c0,0.36-0.03,0.72-0.1,1.07c-0.51,2.97-3.08,5.23-6.2,5.23h-68.03   c-0.28,0-0.54-0.02-0.8-0.07c-3.1-0.38-5.49-3.03-5.49-6.23v-63.9c0-3.48,2.82-6.3,6.3-6.3h68.03   C1514.32,478.5,1517.14,481.32,1517.14,484.8z"></path>
    <path fill="#bfe5ba" d="M1517.04,549.77c-0.51,2.97-3.08,5.23-6.2,5.23h-68.03c-0.28,0-0.54-0.02-0.8-0.07   c-3.1-0.38-5.49-3.03-5.49-6.23v-9.84c12.16-7.26,23.85-13.74,27.2-13.92c3.08-0.15,15.12,5.34,28.41,11.97   C1500.6,541.13,1509.57,545.82,1517.04,549.77z"></path>
    <path fill="#bfe5ba" d="M1517.14,535.95v13.87c-0.03-0.02-0.07-0.03-0.1-0.05c-0.51,2.97-3.08,5.23-6.2,5.23h-49.17   c9.59-5.98,21.48-13.23,30.44-18.08c5.89-3.16,10.49-5.31,12.39-5.41C1506.27,531.42,1510.96,533.18,1517.14,535.95z"></path>
    <circle cx="1489.41" cy="509.89" r="8.9" fill="#fff9ae"></circle>
  </g>
  <line x1="1079.95" x2="1144.63" y1="219.3" y2="219.3" fill="none" stroke="#fff" stroke-linecap="round" stroke-miterlimit="10" stroke-width="3"></line>
  <line x1="1079.95" x2="1223.22" y1="232.88" y2="232.88" fill="none" stroke="#fff" stroke-linecap="round" stroke-miterlimit="10" stroke-width="3"></line>
  <line x1="1079.95" x2="1135.22" y1="246.11" y2="246.11" fill="none" stroke="#fff" stroke-linecap="round" stroke-miterlimit="10" stroke-width="3"></line>
  <line x1="1148.66" x2="1223.22" y1="246.11" y2="246.11" fill="none" stroke="#fff" stroke-linecap="round" stroke-miterlimit="10" stroke-width="3"></line>
  <line x1="1079.95" x2="1174.22" y1="259.34" y2="259.34" fill="none" stroke="#fff" stroke-linecap="round" stroke-miterlimit="10" stroke-width="3"></line>
  <line x1="630.93" x2="695.61" y1="225.76" y2="225.76" fill="none" stroke="#fff" stroke-linecap="round" stroke-miterlimit="10" stroke-width="3"></line>
  <line x1="630.93" x2="774.21" y1="239.34" y2="239.34" fill="none" stroke="#fff" stroke-linecap="round" stroke-miterlimit="10" stroke-width="3"></line>
  <line x1="630.93" x2="686.21" y1="252.57" y2="252.57" fill="none" stroke="#fff" stroke-linecap="round" stroke-miterlimit="10" stroke-width="3"></line>
  <line x1="699.64" x2="774.21" y1="252.57" y2="252.57" fill="none" stroke="#fff" stroke-linecap="round" stroke-miterlimit="10" stroke-width="3"></line>
  <line x1="630.93" x2="725.2" y1="265.8" y2="265.8" fill="none" stroke="#fff" stroke-linecap="round" stroke-miterlimit="10" stroke-width="3"></line>
  <path fill="#fbb040" d="M524.27,888.02v37.38c0,8.89-7.09,16.1-15.91,16.31h-19.7c-9.01,0-16.31-7.29-16.31-16.31v-37.38  c0-1.26,1.03-2.29,2.29-2.29h47.34C523.26,885.73,524.27,886.76,524.27,888.02z"></path>
  <rect width="54.19" height="12.16" x="471.38" y="885.4" fill="#e8882a"></rect>
  <path fill="#ffe2c7" d="M496.92,941.7h-8.26c-9.01,0-16.31-7.29-16.31-16.31v-27.83h-0.98V885.4h5.71v12.16h4.42  C481.51,897.56,477.09,943.2,496.92,941.7z" opacity=".47"></path>
  <linearGradient id="d" x1="1379.263" x2="1379.126" y1="955.332" y2="895.768" gradientUnits="userSpaceOnUse">
    <stop offset="0" stop-color="#fff"></stop>
    <stop offset=".089" stop-color="#f9f9f9" stop-opacity=".916"></stop>
    <stop offset=".208" stop-color="#e8e8e8" stop-opacity=".803"></stop>
    <stop offset=".344" stop-color="#ccc" stop-opacity=".675"></stop>
    <stop offset=".492" stop-color="#a5a5a5" stop-opacity=".535"></stop>
    <stop offset=".65" stop-color="#737373" stop-opacity=".385"></stop>
    <stop offset=".814" stop-color="#383838" stop-opacity=".229"></stop>
    <stop offset=".951" stop-opacity=".1"></stop>
  </linearGradient>
  <ellipse cx="1379.23" cy="942.07" fill="url(#d)" rx="45.16" ry="5.63"></ellipse>
  <path fill="#fbb040" d="M1385.81,878.92v46.3c0,9.25-8.15,16.75-18.3,16.97h-22.66c-10.37,0-18.76-7.59-18.76-16.97v-46.3  c0-1.31,1.19-2.38,2.63-2.38h54.46C1384.64,876.54,1385.81,877.61,1385.81,878.92z"></path>
  <rect width="62.34" height="18.68" x="1324.96" y="876.2" fill="#e8882a"></rect>
  <path fill="#ffe2c7" d="M1354.35,942.19h-9.5c-10.37,0-18.76-7.59-18.76-16.97v-30.35h-1.13V876.2h6.57v18.68h5.09  C1336.62,894.88,1333.89,945.26,1354.35,942.19z" opacity=".47"></path>
  <path fill="#ffe2c7" d="M474.07,942.2h-6.93C471.53,941.91,473.65,941.93,474.07,942.2z"></path>
  <path fill="#aac9a6" d="M1342.6 775.83c-.09.22-.17.39-.24.54-.09.2-.17.33-.2.41-.02.04-.02.06-.02.06.5-34.91-43.29-48.18-43.29-48.18s38.87 4.72 43.29 22.68C1345.64 765.54 1343.6 773.24 1342.6 775.83zM1322.25 804.46c0 0-30.35-2.2-40.33 7.31C1289.44 787.37 1322.25 804.46 1322.25 804.46zM1356.88 784.67c-.02.54-.06 1.09-.07 1.63C1353.73 787.09 1352.96 786.87 1356.88 784.67zM1387.34 763.76c-6.33 3.33-17.02 10.94-23.89 16 13.74-12.17 32.41-37.72 32.41-37.72S1397.27 758.57 1387.34 763.76zM1437.17 785c-10.13-9.37-40.46-6.65-40.46-6.65s23.76-9.59 42.15-4.07C1439.36 779.65 1437.17 785 1437.17 785z"></path>
  <path fill="#bfe5ba" d="M1433.51 703.02c-30.89-1.76-55.46 33.72-55.81 32.61 2.07-9.65 4.24-16.48 6.43-18.8C1393.95 706.47 1416.77 698.41 1433.51 703.02zM1344.1 744.04l-1.24-.98c-8-17.57-34.74-30.91-34.5-49C1308.37 694.06 1343.77 708.63 1344.1 744.04z"></path>
</svg>
